<?xml version="1.0" encoding="utf-8"?>
<!-- Generator: Adobe Illustrator 21.1.0, SVG Export Plug-In . SVG Version: 6.00 Build 0)  -->
<svg version="1.1" id="Layer_1" xmlns="http://www.w3.org/2000/svg" xmlns:xlink="http://www.w3.org/1999/xlink" x="0px" y="0px"
	 viewBox="0 0 1920 1080" style="enable-background:new 0 0 1920 1080;" xml:space="preserve">
<style type="text/css">
	.st0{fill:#F8F9FA;}
	.st1{opacity:0.5;fill:#919191;enable-background:new    ;}
	.st2{opacity:0.5;fill:#AFB0B2;enable-background:new    ;}
	.st3{opacity:0.35;fill:#F6F6F6;enable-background:new    ;}
	.st4{opacity:0.35;fill:#AFB0B2;enable-background:new    ;}
	.st5{opacity:0.35;fill:#919191;enable-background:new    ;}
	.st6{fill:#FFFFFF;}
	.st7{fill:none;stroke:#E6E7E9;stroke-width:2.5;stroke-miterlimit:10;}
	.st8{fill:none;}
	.st9{fill:#383838;stroke:#FFFFFF;stroke-width:3;stroke-miterlimit:1;}
	.st10{fill:#E6E7E9;fill-opacity:0;}
	.st11{opacity:0.8;fill:#E6E7E9;enable-background:new    ;}
	.st12{fill:none;stroke:#FF0000;stroke-width:18;}
	.st13{opacity:0.85;fill:#F6F6F6;enable-background:new    ;}
	.st14{opacity:0.5;}
	.st15{fill:#919191;}
	.st16{fill:none;stroke:#FFFF00;stroke-width:55;}
	.st17{fill:#3D85C6;stroke:#FFFFFF;stroke-width:3;stroke-miterlimit:1;}
	.st18{fill:#3D85C6;}
	.st19{fill:#30C900;}
</style>
<g id="block">
	<rect y="0" class="st0" width="1920" height="1080"/>
	<polygon class="st1" points="1049.4,448.7 1108.5,463 1131.4,456.9 1172.7,396.1 1111.2,337 1085.6,350.5 1121.4,389.3 
		1094.4,382.6 	"/>
	<polygon class="st1" points="1032.8,444.2 1055,414.5 946.7,378 907.3,415 	"/>
	<polygon class="st1" points="1061.2,408.9 1022.5,396.4 1041.5,371.6 1079.7,383.3 	"/>
	<polygon class="st1" points="1004.9,388.1 952.8,371.4 965.3,359 1015.5,375.6 	"/>
	<polygon class="st1" points="889.8,404.6 953.8,342.9 850.3,314.3 801.8,359.5 806,382.2 	"/>
	<polygon class="st1" points="774.6,369.4 682.5,348 735,299.3 824.8,321.2 	"/>
	<polygon class="st1" points="656.9,352 671.5,339 604.4,296.7 569,331.3 	"/>
	<polygon class="st1" points="551.2,327 588.4,287.8 484.7,261.8 452.9,286.2 486.5,295.1 497.6,285.8 531.1,293.7 506.4,315.9 	"/>
	<polygon class="st1" points="535.5,265.3 571.2,232.7 522.1,222.4 482.1,252.7 	"/>
	<polygon class="st1" points="546.1,267.7 596.7,279 662.2,214.6 605.8,187.4 595.7,196 606.2,212.1 	"/>
	<polygon class="st1" points="586,218.4 594.7,210.5 571.4,205.9 562.5,213.2 	"/>
	<polygon class="st1" points="555.8,211.9 588.2,184.3 568.9,181.5 536.3,207.9 	"/>
	<polygon class="st1" points="591.7,161.3 602.7,153.6 589.8,150.9 578.5,158.1 	"/>
	<polygon class="st1" points="572.1,152.4 604.1,131.2 579.2,125.8 557.7,129.2 532.3,144.1 	"/>
	<polygon class="st1" points="597.9,143.5 627.6,123.7 655.8,130.4 641,140.8 626,136.8 611.5,146.4 	"/>
	<polygon class="st1" points="635,173.7 623.1,182.2 649.2,190 681.8,165.2 667,161.6 646.8,177 	"/>
	<path class="st1" d="M732.3,201.1l-25.4,19.7c0,0,69.1,19,69.1,18.6s34-30.6,34-30.6l-27-8.9l-13.7,11.3L732.3,201.1z"/>
	<polygon class="st1" points="768.2,183.4 780.9,172.6 750.7,163.8 737.5,174.2 	"/>
	<polygon class="st1" points="785.8,160.5 811.4,139.9 795,134.5 767.7,155.9 	"/>
	<polygon class="st1" points="746,150.6 734.5,159.2 701.2,149.1 720.8,133.5 746,140.2 736.2,147.3 	"/>
	<polygon class="st1" points="702.9,131.9 714,135.2 742.1,113.5 731,110.5 	"/>
	<polygon class="st1" points="673.5,121 679.9,116.7 698.3,121.4 685,131.1 633.4,118.4 641,113.3 	"/>
	<polygon class="st1" points="804.1,99.9 809.4,101.7 825.3,89.8 811.4,85.3 766.1,119.3 874.8,154.1 881.8,148.3 782.6,116.5 	"/>
	<polygon class="st1" points="775.1,186 819.5,149 865.8,164 822,201.3 	"/>
	<polygon class="st1" points="885.3,160.1 906.1,166.9 929.7,147 910,141.3 	"/>
	<polygon class="st1" points="911.8,169 940.4,178.2 948.8,151.6 935.7,148.5 	"/>
	<polygon class="st1" points="937.3,189.2 923.9,231.7 834.1,206.1 876.5,169.9 	"/>
	<polygon class="st1" points="990.8,169.1 1012.8,153.2 1033.1,152.5 1052.4,160.4 1021.1,184.6 	"/>
	<polygon class="st1" points="1061,126.8 1078.9,133.5 1155.2,75.4 1132.6,65.6 	"/>
	<polygon class="st1" points="1120.5,153.2 1101.8,146.5 1113.1,138 1131.6,145 	"/>
	<polygon class="st1" points="1125,155.1 1140,143.9 1152.2,147.9 1137.5,159.4 	"/>
	<polygon class="st1" points="1149.2,138.3 1160.5,141.9 1211.1,104 1165.3,84.8 1126.5,112.9 1153.6,123.8 	"/>
	<polygon class="st1" points="1202.6,130.9 1213.2,134.7 1226.9,124 1216.5,120 	"/>
	<polygon class="st1" points="1245,104 1177.9,76 1214.1,48.3 1275.9,74.3 	"/>
	<polygon class="st1" points="1262.9,105 1335,123.2 1355.2,93.1 1294,79.8 	"/>
	<polygon class="st1" points="1246.9,151.4 1276.6,124.7 1325.5,137.2 1304.8,168.1 	"/>
	<polygon class="st1" points="1293.2,215.7 1304.9,199.1 1245,180.7 1231.1,194.8 	"/>
	<polygon class="st1" points="1288.4,223.7 1215.2,199 1205,209.5 1235.2,220.1 1208.2,253.1 1257.6,269.5 	"/>
	<polygon class="st1" points="1178.6,247 1202,195.3 1185.2,189.9 1134.6,230.7 	"/>
	<polygon class="st1" points="1108.3,224.8 1159.8,185.4 1084.6,155.5 1036.3,192.6 	"/>
	<polygon class="st1" points="1097.7,234.3 1026.6,199.9 968.4,244.1 1040.7,281.2 	"/>
	<polygon class="st1" points="930.3,324.1 972,282.8 1022.4,296.6 984.5,340.7 	"/>
	<polygon class="st1" points="919.6,315.6 926.7,307.4 888,295.9 875.6,308.6 886.1,312.4 891,307.4 	"/>
	<polygon class="st1" points="951.3,273.6 927.3,303.1 912.9,298.5 938.2,270 	"/>
	<polygon class="st1" points="892,291.8 905.8,296.1 932.1,268.1 918.7,264.6 	"/>
	<polygon class="st1" points="867.3,229.9 903.2,240.1 863.4,275.7 783.8,254.3 825.3,216.2 849.8,224.2 838.9,234.1 856.2,239.4 	
		"/>
	<polygon class="st1" points="824,316.8 861,281.8 777.2,261.4 739.1,296.1 	"/>
	<polygon class="st1" points="643.5,260.9 681.8,229.6 765.7,251.6 722.8,288.7 	"/>
	<polygon class="st1" points="636,268.4 715.3,297 679.7,329.5 615.4,286.7 	"/>
	<polygon class="st1" points="1058.5,335.6 1070.2,338.8 1100.2,324.5 1074,306.5 1066.3,316 1028.2,307.1 989,354.5 1018.3,363 
		1040.1,360.3 	"/>
	<polygon class="st1" points="1067.6,284.7 1130.8,339 1187.2,296.2 1223,309.7 1239.2,289.7 1121.4,242.1 	"/>
	<polygon class="st1" points="1152.9,341.8 1169.8,355.9 1159.3,366.9 1141.9,350.9 	"/>
	<polygon class="st1" points="1178.8,338.1 1195.6,322.5 1206.9,326.1 1213.9,318.4 1230.4,324.1 1199.1,360.6 1181.9,352.8 
		1191,343 	"/>
	<polygon class="st2" points="1004.9,388.1 1005,357.5 952.2,339.9 952.8,371.4 	"/>
	<polygon class="st2" points="1062.9,375.6 1061.3,408.9 1022.5,396.4 1022.5,363 	"/>
	<polygon class="st2" points="1121.4,389.3 1121.8,383.5 1085.6,343.1 1085.6,350.5 	"/>
	<polygon class="st2" points="989.4,354.6 989,317.9 1019,326.1 1018.3,363 	"/>
	<polygon class="st2" points="1058.5,335.6 1058.9,314.3 1070.4,318.3 1070.4,338.6 	"/>
	<polygon class="st2" points="1141.9,350.9 1141.9,346.4 1159.4,361.5 1159.3,366.9 	"/>
	<polygon class="st2" points="1130.8,339 1130.8,331.4 1067.6,277.6 1067.6,284.7 	"/>
	<polygon class="st2" points="1040.7,281.2 1040.7,273.2 968.4,236.1 968.4,244.1 	"/>
	<polygon class="st2" points="1108.3,216.8 1108.3,224.8 1036.3,192.6 1036.3,184.6 	"/>
	<polygon class="st2" points="1021.1,177.4 1021.1,184.6 990.8,169.1 990.8,161.8 	"/>
	<polygon class="st2" points="885.3,160.1 885.3,152.4 905.8,159.2 906.1,166.9 	"/>
	<polygon class="st2" points="911.8,169 911.8,161.3 940.4,170.5 940.4,178.2 	"/>
	<polygon class="st2" points="801.8,359.5 802.3,348.9 806.5,372 806.2,382.3 	"/>
	<polygon class="st2" points="984.5,340.7 984.5,333.5 930.3,316.9 930.3,324.1 	"/>
	<polygon class="st2" points="886.1,312.4 886.2,275.2 874.7,272.2 875.5,308.7 	"/>
	<polygon class="st2" points="919.6,315.6 919.6,278.7 890.8,270.5 891,307.4 	"/>
	<polygon class="st2" points="912.9,261.6 912.9,298.5 927.3,303.1 927.3,266.1 	"/>
	<polygon class="st2" points="892,291.8 892,254.9 905.8,259.2 906,295.9 	"/>
	<polygon class="st2" points="783.8,254.3 783.8,245.4 863.4,266.7 863.4,275.7 	"/>
	<polygon class="st2" points="739.1,296.1 739.1,287.7 824,308.2 824,316.8 	"/>
	<polygon class="st2" points="682.5,348 682,339.4 774.2,360.8 774.6,369.4 	"/>
	<polygon class="st2" points="834.1,206.1 834.1,195.5 923.9,221.1 923.9,231.7 	"/>
	<polygon class="st2" points="806.2,382.3 806.5,372 889.7,394.4 889.8,404.6 	"/>
	<polygon class="st2" points="1101.8,146.5 1101.5,119.5 1120.2,126 1120.5,153.2 	"/>
	<polygon class="st2" points="1125,155.3 1124.9,149.3 1137.6,153.6 1137.6,159.8 	"/>
	<polygon class="st2" points="1160.5,141.9 1160.5,136.6 1149.2,133.5 1149.2,138.3 	"/>
	<polygon class="st2" points="1202.6,130.9 1202.6,123.4 1212.8,127.1 1213.2,134.7 	"/>
	<polygon class="st2" points="1244.8,98.8 1245,104 1177.9,76 1177.9,71.5 	"/>
	<polygon class="st2" points="1246.9,151.4 1246.9,126.3 1304.8,141.7 1304.8,167.3 	"/>
	<polygon class="st2" points="1181.9,352.8 1182.4,347.8 1199.9,355.6 1199.1,360.6 	"/>
	<polygon class="st2" points="1191,343 1191.8,337.9 1179.6,333.1 1178.8,338.1 	"/>
	<polygon class="st2" points="1187.2,296.2 1187.2,289.6 1209.5,297.9 1209.5,228.2 1223,233.8 1223,309.7 	"/>
	<polygon class="st2" points="1178.6,247 1178.4,240.4 1134.6,224.4 1134.6,230.7 	"/>
	<polygon class="st2" points="1257.6,269.5 1257.6,252.4 1208.2,236 1208.2,253.1 	"/>
	<polygon class="st2" points="1235.2,220.1 1235.2,203 1205,193 1205,209.5 	"/>
	<polygon class="st2" points="1231.1,194.8 1231.1,179.3 1273.5,193 1273.3,183.8 1293.2,189.6 1293.2,215.7 	"/>
	<polygon class="st2" points="1262.9,105 1262.9,89 1335.3,105.3 1335,123.2 	"/>
	<polygon class="st2" points="1078.9,133.5 1078.9,127.1 1061,120.5 1061,126.8 	"/>
	<polygon class="st2" points="1153.6,123.8 1153.5,119 1126.5,108.1 1126.5,112.9 	"/>
	<polygon class="st2" points="706.9,220.8 706.9,187.7 776,206.5 776,239.4 	"/>
	<polygon class="st2" points="768.2,183.4 768.2,160.5 737.5,152.6 737.5,174.2 	"/>
	<polygon class="st2" points="623.1,182.2 621.1,156.6 647.2,163.8 649.2,190 	"/>
	<polygon class="st2" points="641,140.8 638.4,121.4 623.4,117.4 626,136.8 	"/>
	<polygon class="st2" points="633.4,118.4 632.2,106.7 683.9,119.4 685,131.1 	"/>
	<polygon class="st2" points="701.2,149.1 700.2,125.8 733.5,135.9 734.5,159.2 	"/>
	<polygon class="st2" points="569.7,331.5 568.4,293.6 656.9,314.4 656.9,352 	"/>
	<polygon class="st2" points="452.9,286.2 446.9,246.4 480.5,255.3 486.5,295.1 	"/>
	<polygon class="st2" points="497.6,285.8 491.6,245.9 526.8,255 531.1,293.7 	"/>
	<polygon class="st2" points="506.4,315.9 502,276.2 548.7,286.8 551.2,327 	"/>
	<polygon class="st2" points="615.4,286.7 615.4,250.6 679.7,293.4 679.7,329.5 	"/>
	<polygon class="st2" points="643.5,260.9 643.5,222.7 722.8,250.5 722.8,288.7 	"/>
	<polygon class="st2" points="596.7,279 595.1,249.9 543.2,239.5 546.1,267.7 	"/>
	<polygon class="st2" points="595.7,196 593,167.3 603.3,183.3 606.2,212.1 	"/>
	<polygon class="st2" points="482.1,252.7 481,246.4 534.9,259 535.5,265.3 	"/>
	<polygon class="st2" points="586.1,218.6 585.6,212.1 562.1,207 562.5,213.2 	"/>
	<polygon class="st2" points="551.3,180 555.8,211.9 536.3,207.9 532.3,176.1 	"/>
	<polygon class="st2" points="775.1,186 775.1,177.4 822,192 822,201.3 	"/>
	<polygon class="st2" points="767.7,155.9 767,135.4 785.1,139.9 785.8,160.5 	"/>
	<polygon class="st2" points="804.1,99.9 804.1,94.9 809.4,96.7 809.4,101.7 	"/>
	<polygon class="st2" points="702.9,131.9 701.2,103.5 712.2,106.8 714,135.2 	"/>
	<polygon class="st2" points="532.3,144.1 531.3,135.5 571,143.8 572.1,152.4 	"/>
	<polygon class="st2" points="611.5,146.4 608.8,127 595.3,124.1 597.9,143.5 	"/>
	<polygon class="st1" points="1055,414.5 1055.6,391.8 1033.8,420.3 1032.8,444.2 	"/>
	<polygon class="st1" points="1015.5,346.2 1015.5,375.6 1004.9,388.1 1005,357.5 	"/>
	<polygon class="st1" points="1061.3,408.9 1062.9,375.6 1082.3,350.3 1079.7,383.3 	"/>
	<polygon class="st1" points="1131.5,456.7 1131.5,412.5 1108.2,419.1 1108.2,463 	"/>
	<polygon class="st1" points="1325.5,137.2 1325.5,112.1 1304.8,141.7 1304.8,167.3 	"/>
	<polygon class="st1" points="1199.1,360.6 1199.9,355.6 1231.2,319.1 1230.4,324.1 	"/>
	<polygon class="st1" points="1159.3,366.9 1159.4,361.5 1169.8,351.3 1169.8,355.9 	"/>
	<polygon class="st1" points="1239.2,289.7 1239.6,213.8 1223,233.8 1223,309.7 	"/>
	<polygon class="st1" points="1288.4,223.7 1288.4,206.6 1257.6,252.4 1257.6,269.5 	"/>
	<polygon class="st1" points="1304.9,199.1 1305.3,175 1293.2,189.6 1293.2,215.7 	"/>
	<polygon class="st1" points="1335,123.2 1335.3,105.3 1355.2,77.2 1355.2,93.1 	"/>
	<polygon class="st1" points="1070.4,338.6 1070.4,318.3 1100.3,305.5 1100.2,324.5 	"/>
	<polygon class="st1" points="1131.7,118 1131.6,145 1120.5,153.2 1120.2,126 	"/>
	<polygon class="st1" points="1137.6,153.6 1137.5,159.4 1152.2,147.9 1152.2,142.2 	"/>
	<polygon class="st1" points="1160.5,141.9 1160.5,136.6 1211.1,98.5 1211.1,104 	"/>
	<polygon class="st1" points="1213.2,134.7 1212.8,127.1 1226.9,116.7 1226.9,124 	"/>
	<polygon class="st1" points="1245,104 1244.8,98.8 1276,69 1275.9,74.3 	"/>
	<polygon class="st1" points="1067.6,284.7 1066.9,302.2 1059,315.2 1058.5,335.6 1040,360.3 1040.7,323.4 	"/>
	<polygon class="st1" points="1040,360.3 1040.7,323.4 1019,326.1 1018.3,363 	"/>
	<polygon class="st1" points="984.5,340.7 984.5,333.5 1022.4,289.8 1022.4,296.6 	"/>
	<polygon class="st1" points="1130.8,339 1130.8,331.4 1187.2,289.6 1187.2,296.2 	"/>
	<polygon class="st1" points="1178.6,247 1178.4,240.4 1202.2,188.9 1202,195.3 	"/>
	<polygon class="st1" points="1040.7,281.2 1040.7,273.2 1097.7,226.3 1097.7,234.3 	"/>
	<polygon class="st1" points="1108.3,216.8 1108.3,224.8 1159.8,185.4 1159.8,177.4 	"/>
	<polygon class="st1" points="1078.9,133.5 1078.9,127.1 1155.2,69 1155.2,75.4 	"/>
	<polygon class="st1" points="1021.1,184.6 1021.1,177.4 1052.4,153.1 1052.4,160.4 	"/>
	<polygon class="st1" points="889.8,404.6 889.7,394.4 954.2,333.8 953.8,342.9 	"/>
	<polygon class="st1" points="776,239.4 776,206.5 810,175.8 810,208.8 	"/>
	<polygon class="st1" points="886.1,312.4 886.2,275.2 890.8,270.5 891,307.4 	"/>
	<polygon class="st1" points="926.7,270.4 926.7,307.4 919.6,315.6 919.6,278.7 	"/>
	<polygon class="st1" points="927.3,303.1 927.3,266.1 951.3,236.6 951.3,273.6 	"/>
	<polygon class="st1" points="932.1,268.1 932.1,231.1 905.8,259.2 906,295.9 	"/>
	<polygon class="st1" points="863.4,275.7 863.4,266.7 903.2,231.2 903.2,240.1 	"/>
	<polygon class="st1" points="838.9,234.1 838.9,225.2 849.8,216.2 849.8,224.2 	"/>
	<polygon class="st1" points="824,316.8 824,308.2 861,273.4 861,281.8 	"/>
	<polygon class="st1" points="824.4,321.2 824.4,312.5 774.2,360.8 774.6,369.4 	"/>
	<polygon class="st1" points="656.9,352 656.9,314.4 671.5,301.3 671.5,339 	"/>
	<polygon class="st1" points="679.7,293.4 679.7,329.5 715.3,297 715.3,260.9 	"/>
	<polyline class="st1" points="722.8,288.7 765.7,251.6 765.7,213.4 722.8,250.5 722.8,288.7 	"/>
	<polygon class="st1" points="906.1,166.9 905.8,159.2 929.7,139.9 929.7,147 	"/>
	<polygon class="st1" points="940.4,178.2 940.4,170.5 948.8,144 948.8,151.6 	"/>
	<polygon class="st1" points="768.2,183.4 768.2,160.5 780.3,150.2 780.9,172.6 	"/>
	<polygon class="st1" points="734.5,159.2 733.5,135.9 745,127.2 746,150.6 	"/>
	<polygon class="st1" points="874.8,154.1 874.8,124.6 881.8,119.7 881.8,148.3 	"/>
	<polygon class="st1" points="937.3,189.2 937.3,178.6 923.9,221.1 923.9,231.7 	"/>
	<polygon class="st1" points="785.8,160.5 785.1,139.9 810.7,119.3 811.4,139.9 	"/>
	<polygon class="st1" points="782.6,116.5 782.6,111.5 804.1,94.9 804.1,99.9 	"/>
	<polygon class="st1" points="809.4,96.7 809.4,101.7 825.3,89.8 825.3,84.8 	"/>
	<polygon class="st1" points="714,135.2 712.2,106.8 740.3,85.2 742.1,113.5 	"/>
	<polygon class="st1" points="822,201.3 822,192 865.8,155.4 865.8,164 	"/>
	<polyline class="st1" points="746,140.2 736.2,147.3 735.2,124 745,116.9 746,140.2 	"/>
	<polygon class="st1" points="649.2,190 647.2,163.8 679.9,139.5 681.8,165.2 	"/>
	<polygon class="st1" points="611.5,146.4 608.8,127 623.4,117.4 626,136.8 	"/>
	<polygon class="st1" points="641,140.8 638.4,121.4 653.2,111 655.8,130.4 	"/>
	<polygon class="st1" points="685,131.1 683.9,119.4 697.1,109.7 698.3,121.4 	"/>
	<polygon class="st1" points="497.6,285.8 491.6,245.9 480.5,255.3 486.5,295.1 	"/>
	<polygon class="st1" points="588.4,287.8 586.4,248.1 548.7,286.8 551.2,327 	"/>
	<polygon class="st1" points="596.7,279 595.1,249.9 660.3,186.3 662.2,214.6 	"/>
	<polygon class="st1" points="535.5,265.3 534.9,259 571.2,226.4 571.2,232.7 	"/>
	<polygon class="st1" points="586.1,218.6 585.6,212.1 594.7,204.3 594.7,210.5 	"/>
	<polygon class="st1" points="555.8,211.9 551.3,180 585.5,156.1 588.2,184.3 	"/>
	<polygon class="st1" points="571,143.8 572.1,152.4 604.1,131.2 603.1,122.6 	"/>
	<polygon class="st3" points="991.2,410 1033.8,420.3 1055.6,391.8 1016,381.9 	"/>
	<polygon class="st3" points="1092.1,415.1 1108.2,419.1 1131.5,412.5 1151,386.9 1117.8,377.1 	"/>
	<polygon class="st3" points="1022.5,363 1062.9,375.6 1082.3,350.3 1043.2,338.6 	"/>
	<polygon class="st3" points="1017.8,395.1 946.8,371.2 907.5,406.9 991.2,426.4 	"/>
	<polygon class="st3" points="952.2,339.9 1005,357.5 1015.5,346.2 963.3,329.8 	"/>
	<polygon class="st3" points="954.2,333.8 849.5,305.3 802.3,348.9 806.5,372 889.7,394.4 	"/>
	<polygon class="st3" points="1101.5,119.5 1112.5,111.9 1131.7,118 1120.2,126 	"/>
	<polygon class="st3" points="1124.9,149.3 1139.9,138.3 1152.2,142.2 1137.6,153.6 	"/>
	<polygon class="st3" points="1149.2,133.5 1160.5,136.6 1211.1,98.5 1165.1,79.7 1126.5,108.1 1153.5,119 	"/>
	<polygon class="st3" points="1202.6,123.4 1212.8,127.1 1226.9,116.7 1216,113.3 	"/>
	<polygon class="st3" points="1177.9,71.5 1244.8,98.8 1276,69 1213.7,44.1 	"/>
	<polygon class="st3" points="1273.3,183.8 1293.2,189.6 1305.3,175 1285.9,169.4 	"/>
	<polygon class="st3" points="1287.7,177.2 1245.8,164.7 1231.1,179.3 1273.5,193 	"/>
	<polygon class="st3" points="874.8,124.6 864.5,122.2 871,117.5 881.8,119.7 	"/>
	<polygon class="st3" points="1114,413 1092,450.6 1049.4,439.6 1092,376 1121.8,383.5 1121.8,383.5 1085.6,343.1 1111.2,329.8 
		1173,385.8 1149.3,420.3 	"/>
	<polygon class="st3" points="1179.6,333.1 1196.4,317.4 1207.6,321.1 1214.6,313.4 1231.2,319.1 1199.9,355.6 1182.4,347.8 
		1191.8,337.9 	"/>
	<polygon class="st3" points="1067.6,284.7 1025.9,275.6 989,317.9 1019,326.1 1040.7,323.4 	"/>
	<polygon class="st3" points="930.3,316.9 972,275.6 1022.4,289.8 984.5,333.5 	"/>
	<polygon class="st3" points="1152.8,337.5 1169.8,351.3 1159.4,361.5 1141.9,346.4 	"/>
	<polygon class="st3" points="1226.6,278.2 1209.5,297.9 1187.2,289.6 1130.8,331.4 1067.6,277.6 1121.4,235.7 	"/>
	<polygon class="st3" points="1209.5,228.2 1223,233.8 1239.6,213.8 1225.7,208.2 	"/>
	<polygon class="st3" points="1178.4,240.4 1202.2,188.9 1185.2,183.5 1134.6,224.4 	"/>
	<polygon class="st3" points="1288.4,206.6 1215.7,182.4 1205,193 1235.2,203 1208.2,236 1257.6,252.4 	"/>
	<polygon class="st3" points="1246.9,126.3 1275.6,100.5 1325.5,112.1 1304.8,141.7 	"/>
	<polygon class="st3" points="1262.9,89 1335.3,105.3 1355.2,77.2 1294,63.8 	"/>
	<polygon class="st3" points="919.6,278.7 926.7,270.4 888.5,259.1 874.7,271.9 886.2,275.2 890.8,270.5 	"/>
	<polygon class="st3" points="951.3,236.6 927.3,266.1 912.9,261.6 938.2,233 	"/>
	<polygon class="st3" points="892,254.9 905.8,259.2 932.1,231.1 918.7,227.6 	"/>
	<polygon class="st3" points="1108.3,216.8 1159.8,177.4 1084.6,147.5 1036.3,184.6 	"/>
	<polygon class="st3" points="1097.7,226.3 1026.6,191.9 968.4,236.1 1040.7,273.2 	"/>
	<polygon class="st3" points="1061,120.5 1078.9,127.1 1155.2,69 1132.6,59.3 	"/>
	<polygon class="st3" points="867.3,220.9 903.2,231.2 863.4,266.7 783.8,245.4 825.3,208.8 849.8,216.2 838.9,225.2 856.2,230.5 	
		"/>
	<polygon class="st3" points="824,308.2 861,273.4 777.2,253 739.1,287.7 	"/>
	<polygon class="st3" points="774.2,360.8 682,339.4 734.5,290.6 824.4,312.5 	"/>
	<polygon class="st3" points="656.9,314.4 671.5,301.3 604.4,259 568.4,293.6 	"/>
	<polygon class="st3" points="548.7,286.8 586.4,248.1 481.5,222.4 446.9,246.4 480.5,255.3 491.6,245.9 526.8,255 502,276.2 	"/>
	<polygon class="st3" points="634.7,231.8 715.3,260.9 679.7,293.4 615.4,250.6 	"/>
	<polygon class="st3" points="643.5,222.7 681.8,191.4 765.7,213.4 722.8,250.5 	"/>
	<polygon class="st3" points="543.2,239.5 595.1,249.9 660.3,186.3 605.8,159.2 593,167.3 603.3,183.3 	"/>
	<polygon class="st3" points="534.9,259 571.2,226.4 521.4,216.6 481,246.4 	"/>
	<polygon class="st3" points="585.6,212.1 594.7,204.3 570.7,200.1 562.1,207 	"/>
	<path class="st3" d="M732.3,168.2l-25.4,19.7c0,0,69.1,19,69.1,18.6c0-0.4,34-30.6,34-30.6l-27-8.9l-13.7,11.3L732.3,168.2z"/>
	<polygon class="st3" points="937.3,178.6 923.9,221.1 834.1,195.5 876.5,159.2 	"/>
	<polygon class="st3" points="885.3,152.4 905.8,159.2 929.7,139.9 910,134.2 	"/>
	<polygon class="st3" points="911.8,161.3 940.4,170.5 948.8,144 935.7,140.8 	"/>
	<polygon class="st3" points="775.1,177.4 819.9,141.2 865.8,155.4 822,192 	"/>
	<polygon class="st3" points="768.2,160.5 780.3,150.2 751.3,142.7 737.5,152.6 	"/>
	<polygon class="st3" points="871.6,140 782.6,111.5 804.1,94.9 809.4,96.7 825.3,84.8 811.4,80.3 766.1,114.3 864.5,145.8 	"/>
	<polygon class="st3" points="745,127.2 733.5,135.9 700.2,125.8 720.6,110.4 745,116.9 735.2,124 	"/>
	<polygon class="st3" points="701.2,103.5 712.2,106.8 740.3,85.2 729.3,82.2 	"/>
	<polygon class="st3" points="633,148.1 621.1,156.6 647.2,163.8 679.9,139.5 665,136 644.8,151.4 	"/>
	<polygon class="st3" points="586.6,122.9 597.6,115.2 584.1,112.8 573.3,119.7 	"/>
	<polygon class="st3" points="595.3,124.1 625,104.4 653.2,111 638.4,121.4 623.4,117.4 608.8,127 	"/>
	<polygon class="st3" points="672.3,109.4 678.7,105 697.1,109.7 683.9,119.4 632.2,106.7 639.9,101.6 	"/>
	<polygon class="st3" points="571,143.8 603.1,122.6 578.1,117.2 556.7,120.7 531.3,135.5 	"/>
	<polygon class="st3" points="990.8,161.8 1012.8,145.9 1033.1,145.2 1052.4,153.1 1021.1,177.4 	"/>
	<polygon class="st3" points="1059,315.4 1070.4,318.3 1100.3,305.5 1074.8,289 	"/>
	<polygon class="st4" points="1049.5,448.6 1049.4,439.6 1092,450.6 1092.1,415.1 1108.2,419.1 1108.2,463 	"/>
	<polygon class="st5" points="1131.5,456.7 1131.5,412.5 1151,386.9 1149.3,420.3 1173,385.8 1172.4,396.3 	"/>
	<polygon class="st4" points="1032.8,444.2 1033.8,420.3 991.2,410 991.2,426.4 907.5,406.9 907.3,415 	"/>
	<polygon class="st4" points="766.3,119.3 766.1,114.3 864.5,145.8 864.5,122.2 874.8,124.6 874.8,154.1 	"/>
	<polygon class="st3" points="785.1,139.9 810.7,119.3 794.2,114.1 767,135.4 	"/>
	<polygon class="st4" points="591.7,161.3 586.6,122.9 573.3,119.7 578.5,158.1 	"/>
	<polygon class="st3" points="551.3,180 585.5,156.1 565.4,153.2 532.3,176.1 	"/>
	<polygon class="st5" points="591.7,161.3 586.6,122.9 597.6,115.2 602.7,153.6 	"/>
	<polygon class="st3" points="846.6,517.5 886.4,533 914.5,498.1 870.4,483.2 	"/>
</g>
<g id="Layer_7">
	<path class="st6" d="M1423.2,634.8l51.7-65.5l113.2-123l0.1-0.1l0.1-0.2l134-180.4L1920,9.8V0l-19.1,0l-199.7,257.3l0,0l0,0
		L1569.4,432l0,0l-116.8,124.7l-0.1,0.1l-0.1,0.1l-55.2,67.5l-29.9,41.1l-54.6,76.4l-91.4,122.9l-25.8,35.2
		c-15.7,21.4-9.5,51.6,13.2,65.2l26.1,15.6l24,14.1l0.2,0.1l0.2,0.1c0.2,0.1,0.4,0.2,0.7,0.3c3.1,1.6,12.7,6.4,32.8,11.4
		c9.6,2.4,19.7,3.5,30.9,3.5c4.1,0,8.4-0.2,12.8-0.5l46.7-3l536.8-20v-23.8L1337.5,985c-0.4,0-4.1,0.2-9.2,0.2
		c-9.1,0-21.9-0.5-30.8-3c-8.6-2.4-22.8-8.5-30.1-12c-3.7-1.8-21.8-12.4-37.9-21.8c-13-7.6-16.6-24.8-7.8-37L1330,761.8l60.3-84.2
		L1423.2,634.8z M878.4,760.8l35.4-33.4c47-44.9,148.7-143.8,190.3-184.2l43.2-44.8l57.2-71.8l0.1-0.1l87.2-125.7
		c0,0,102-216.9,138.5-300.9h-19.7C1374.4,79.9,1273,289,1273,289l-88.2,124.2l-59.4,70.3l-34.2,36.5
		c-44.9,43.6-194.5,188.5-234.2,225.4l-0.1,0.1c-38,33-93.5,73-151.9,114.5l-0.1,0.1c-39.4,26.4-56.1,36-72.3,45.2
		c-5.1,2.9-10.5,6-16.4,9.5c-2.6,1.5-26.2,15.2-49.8,19c-2.6,0.4-5.4,0.6-8.5,0.6c-16.8,0-36.1-6.6-36.1-6.6L178.8,820.7
		c-33.3-9.4-33.6-53.6-69.8-60.3L0,747.9v20.5L95.4,779c37.4,3,31.8,48.7,74.4,63.9l357.2,116c0.2,0,13.7,4.3,33.2,4.3
		c4.8,0,9.6-0.3,14.3-0.8c13-1.4,34-12.5,34-12.5c1.8-1,66.7-39.5,114.2-70.4l0,0l0,0c57-38.7,110.8-79.2,147.5-111.1l0.1,0l0,0
		C870.6,767.8,875.3,763.6,878.4,760.8L878.4,760.8l0.1-0.1"/>
	<path class="st7" d="M0,768.4L95.4,779c37.4,3,31.8,48.7,74.4,63.9l357.2,116c0.2,0,13.7,4.3,33.2,4.3c4.8,0,9.6-0.3,14.3-0.8
		c13-1.4,34-12.5,34-12.5c1.8-1,66.7-39.5,114.2-70.4l0,0l0,0c57-38.7,110.8-79.2,147.5-111.1l0.1,0l0,0c0.3-0.3,5-4.5,8.1-7.3
		l0.1-0.1l0.1-0.1 M1410.5,0C1374.4,79.9,1273,289,1273,289l-88.2,124.2l-59.4,70.3l-34.2,36.5c-44.9,43.6-194.5,188.5-234.2,225.4
		l-0.1,0.1c-38,33-93.5,73-151.9,114.5l-0.1,0.1c-39.4,26.4-56.1,36-72.3,45.2c-5.1,2.9-10.5,6-16.4,9.5c-2.6,1.5-26.2,15.2-49.8,19
		c-2.6,0.4-5.4,0.6-8.5,0.6c-16.8,0-36.1-6.6-36.1-6.6L178.8,820.7c-33.3-9.4-33.6-53.6-69.8-60.3L0,747.9 M1920,963.1L1337.5,985
		c-0.4,0-4.1,0.2-9.2,0.2c-9.1,0-21.9-0.5-30.8-3c-8.6-2.4-22.8-8.5-30.1-12c-3.7-1.8-21.8-12.4-37.9-21.8c-13-7.6-16.6-24.8-7.8-37
		L1330,761.8l60.3-84.2l32.9-42.8l51.7-65.5l113.2-123l0.1-0.1l0.1-0.2l134-180.4L1920,9.8 M1900.9,0l-199.7,257.3l0,0l0,0
		L1569.4,432l0,0l-116.8,124.7l-0.1,0.1l-0.1,0.1l-55.2,67.5l-29.9,41.1l-54.6,76.4l-91.4,122.9l-25.8,35.2
		c-15.7,21.4-9.5,51.6,13.2,65.2l26.1,15.6l24,14.1l0.2,0.1l0.2,0.1c0.2,0.1,0.4,0.2,0.7,0.3c3.1,1.6,12.7,6.4,32.8,11.4
		c9.6,2.4,19.7,3.5,30.9,3.5c4.1,0,8.4-0.2,12.8-0.5l46.7-3l536.8-20 M878.4,760.8l35.4-33.4c47-44.9,148.7-143.8,190.3-184.2
		l43.2-44.8l57.2-71.8l0.1-0.1l87.2-125.7c0,0,102-216.9,138.5-300.9"/>
	<path class="st8" d="M1585.4,441.6l184.5-246.7l161.9-208.6l-9-6.7l-163.9,210.2l-184.5,245.3l-98.5,104.4l-27.8,42l-37.6,44.5
		l-31.8,42.9l-47.3,68l-43.8,47.1l-83.2,113.7c-22.4,29.9-4.2,55.2,5.9,61.5l56.4,32.5c24.7,12.8,57.7,13.2,73,12.7l601.5-24.7v-12
		l-599.4,24.8c-21.9,1.9-47.1,0-66.3-9.6l-51.6-29.6c-11.7-6.6-23.2-22.4-5.9-48.1l81.7-112.7l33.6-53.9l47.3-68.4l32.5-43.6
		l36.2-43.8l38.5-35.2L1585.4,441.6z"/>
	<circle class="st9" cx="0" cy="0" r="10">
	
		<animateMotion  accumulate="none" additive="replace" calcMode="linear" dur="50s" fill="remove" id="a" keyPoints="0;0.0;1" keyTimes="0;0.1;1" path="M1585.401,441.626l184.532-246.71   l161.884-208.623l-9-6.667L1758.87,189.791l-184.469,245.283l-98.541,104.398l-27.802,41.988l-37.597,44.541l-31.81,42.876   l-47.333,68l-43.759,47.119l-83.222,113.7c-22.435,29.932-4.185,55.182,5.906,61.456l56.42,32.454   c24.74,12.832,57.733,13.231,72.957,12.703l601.533-24.682v-12l-599.449,24.792c-21.884,1.875-47.134,0-66.275-9.594   l-51.586-29.596c-11.689-6.602-23.189-22.352-5.888-48.065l81.727-112.735l33.638-53.885l47.333-68.417l32.5-43.565l36.167-43.768   l38.486-35.229L1585.401,441.626z" repeatCount="indefinite" restart="always">
		</animateMotion>
	</circle>
	<circle class="st9" cx="0" cy="0" r="10">
	
		<animateMotion  accumulate="none" additive="replace" calcMode="linear" dur="40s" fill="remove" id="a" path="M1585.401,441.626l184.532-246.71   l161.884-208.623l-9-6.667L1758.87,189.791l-184.469,245.283l-98.541,104.398l-27.802,41.988l-37.597,44.541l-31.81,42.876   l-47.333,68l-43.759,47.119l-83.222,113.7c-22.435,29.932-4.185,55.182,5.906,61.456l56.42,32.454   c24.74,12.832,57.733,13.231,72.957,12.703l601.533-24.682v-12l-599.449,24.792c-21.884,1.875-47.134,0-66.275-9.594   l-51.586-29.596c-11.689-6.602-23.189-22.352-5.888-48.065l81.727-112.735l33.638-53.885l47.333-68.417l32.5-43.565l36.167-43.768   l38.486-35.229L1585.401,441.626z" repeatCount="indefinite" restart="always">
		</animateMotion>
	</circle>
	<g id="tunnel_1_">
		<g id="Layer_2_2_">
			<path class="st10" d="M1332.5,714.1l36.5-50.4l29.9-41.1l38-46.5c0,0-4.9,9.6,4,14.9c10.5,6.3,19.8-3.6,19.8-3.6l-34.4,43.7
				l-34.3,44.5l-36.6,50.9c0,0,5.4-10.9-4-16.6C1340.8,703.7,1332.5,714.1,1332.5,714.1z"/>
		</g>
	</g>
	<path class="st8" d="M1355.3,726.6c0,0,5.4-10.9-4-16.6c-10.5-6.3-18.7,4.2-18.7,4.2"/>
	<path class="st8" d="M1436.9,576.1c0,0-5,9.8,4,14.9c10.1,5.8,19.8-3.6,19.8-3.6"/>
	<path class="st8" d="M1427.1-25.5c-36.9,81.4-149.9,316.8-149.9,316.8l-71.8,101.5l-27.9,45.8l-62.4,71.9l-64,64.6l-43.1,34.6
		L885.9,729.1l-28.8,25c-51,44.6-106.3,82.6-149.3,112c-32.2,22-67.9,43.2-86.3,54.2c-29.3,16.7-48.1,22.8-65.2,22.8
		c-11.8,0-22.7-2.9-35.6-7.2L177.2,826c-35.9-12.7-38-56.7-70.8-61.4L-55.5,746l-9.3,11l161.1,16.3c42.8,5.5,36.3,48.7,74.9,63.1
		l353.6,113.7c12.2,4.2,23.1,6.1,33.5,6.1c23,0,43.1-9.4,66.7-24.1c0,0,57.7-34.4,91-56.3c45.8-30,148.5-112.8,148.5-112.8
		l28.7-25.6l122-118l37.2-43.2l64.9-64.5l61.5-72.5l38.3-41.3l70.8-100.7c0,0,111.7-238.3,148.8-322.4L1427.1-25.5L1427.1-25.5z"/>
	<circle class="st9" cx="0" cy="0" r="10">
	
		<animateMotion  accumulate="none" additive="replace" calcMode="linear" dur="54s" fill="remove" id="a" keyPoints="0;0.0;1" keyTimes="0;0.1;1" path="M1427.072-25.464   c-36.921,81.424-149.921,316.841-149.921,316.841l-71.793,101.518l-27.915,45.783l-62.393,71.948l-64.024,64.563l-43.073,34.576   L885.901,729.127l-28.75,25c-51,44.638-106.339,82.619-149.25,111.989c-32.16,22.011-67.949,43.174-86.25,54.233   c-29.261,16.716-48.126,22.765-65.185,22.765c-11.799,0-22.735-2.894-35.648-7.153L177.211,826.023   c-35.894-12.73-37.998-56.7-70.831-61.367L-55.516,745.96l-9.333,11l161.083,16.333c42.782,5.485,36.25,48.667,74.86,63.066   l353.644,113.747c12.15,4.195,23.106,6.102,33.461,6.102c23.022,0,43.077-9.424,66.701-24.081c0,0,57.712-34.422,91-56.25   c45.75-30,148.5-112.75,148.5-112.75l28.663-25.583l121.952-118.001l37.198-43.165l64.854-64.5l61.458-72.49l38.307-41.295   l70.818-100.715c0,0,111.731-238.282,148.833-322.417L1427.072-25.464L1427.072-25.464z" repeatCount="indefinite" restart="always">
		</animateMotion>
	</circle>
	<circle class="st9" cx="0" cy="0" r="10">
	
		<animateMotion  accumulate="none" additive="replace" calcMode="linear" dur="56s" fill="remove" id="a" path="M1427.072-25.464   c-36.921,81.424-149.921,316.841-149.921,316.841l-71.793,101.518l-27.915,45.783l-62.393,71.948l-64.024,64.563l-43.073,34.576   L885.901,729.127l-28.75,25c-51,44.638-106.339,82.619-149.25,111.989c-32.16,22.011-67.949,43.174-86.25,54.233   c-29.261,16.716-48.126,22.765-65.185,22.765c-11.799,0-22.735-2.894-35.648-7.153L177.211,826.023   c-35.894-12.73-37.998-56.7-70.831-61.367L-55.516,745.96l-9.333,11l161.083,16.333c42.782,5.485,36.25,48.667,74.86,63.066   l353.644,113.747c12.15,4.195,23.106,6.102,33.461,6.102c23.022,0,43.077-9.424,66.701-24.081c0,0,57.712-34.422,91-56.25   c45.75-30,148.5-112.75,148.5-112.75l28.663-25.583l121.952-118.001l37.198-43.165l64.854-64.5l61.458-72.49l38.307-41.295   l70.818-100.715c0,0,111.731-238.282,148.833-322.417L1427.072-25.464L1427.072-25.464z" repeatCount="indefinite" restart="always">
		</animateMotion>
	</circle>
	<circle class="st9" cx="0" cy="0" r="10">
	
		<animateMotion  accumulate="none" additive="replace" calcMode="linear" dur="38s" fill="remove" id="a" keyPoints="0;0.0;1" keyTimes="0;0.1;1" path="M1427.072-25.464   c-36.921,81.424-149.921,316.841-149.921,316.841l-71.793,101.518l-27.915,45.783l-62.393,71.948l-64.024,64.563l-43.073,34.576   L885.901,729.127l-28.75,25c-51,44.638-106.339,82.619-149.25,111.989c-32.16,22.011-67.949,43.174-86.25,54.233   c-29.261,16.716-48.126,22.765-65.185,22.765c-11.799,0-22.735-2.894-35.648-7.153L177.211,826.023   c-35.894-12.73-37.998-56.7-70.831-61.367L-55.516,745.96l-9.333,11l161.083,16.333c42.782,5.485,36.25,48.667,74.86,63.066   l353.644,113.747c12.15,4.195,23.106,6.102,33.461,6.102c23.022,0,43.077-9.424,66.701-24.081c0,0,57.712-34.422,91-56.25   c45.75-30,148.5-112.75,148.5-112.75l28.663-25.583l121.952-118.001l37.198-43.165l64.854-64.5l61.458-72.49l38.307-41.295   l70.818-100.715c0,0,111.731-238.282,148.833-322.417L1427.072-25.464L1427.072-25.464z" repeatCount="indefinite" restart="always">
		</animateMotion>
	</circle>
	<path class="st11" d="M1045.5,564.3l46.2-45l35.1-37.5L1163,439c0,0-5.6,8.3,3.4,14.4c10.1,6.9,18.2-2,18.2-2l-34.8,43.8l-45,47.3
		l-35.9,34.9c0,0,7.1-9.6-3.8-15.7C1054.2,555.5,1045.5,564.3,1045.5,564.3z"/>
	<path class="st7" d="M1163,439c0,0-5.6,8.3,3.4,14.4c10.1,6.9,18.2-2,18.2-2"/>
	<path class="st7" d="M1068.9,577.4c0,0,7.1-9.6-3.8-15.7c-10.9-6.1-19.6,2.6-19.6,2.6"/>
	<path class="st6" d="M1409.3,672.3l91.1,38.9l297.1,125.6c1.1,0.5,27,11.6,51,16.2l0.1,0l0.1,0c21.1,3.5,51.2,4,51.4,4h0.1
		l19.9-0.1v-23.1l-20.8,0.1c-0.3,0-3.7,0-5.8,0c-7.6,0-22.7-1-43.2-4.3c-23-3.8-56.4-18.5-57.8-19.1l-281.7-121.3l-83.4-37.4
		l-57.1-26.4l-219.8-112.3l-45.8-25.3l-66-34.5l-0.4-0.2l-0.4-0.1l-186.9-49l-158.9-40.9l-0.1,0l-0.1,0l-226.6-46l-0.5-0.1l-0.5,0
		L351.4,320h-0.1l-0.1,0l-208.6,13.3l-0.2,0l-0.2,0L0,354.1v21.5l142.4-22.3h0l210.4-14.1l101-3.7l230.7,47.2L847,424.3l181.3,47.5
		l61.3,34.9l55.6,30.2l217.7,110.5L1409.3,672.3z"/>
	<path class="st7" d="M1920,833.7l-20.8,0.1c-0.3,0-3.7,0-5.8,0c-7.6,0-22.7-1-43.2-4.3c-23-3.8-56.4-18.5-57.8-19.1l-281.7-121.3
		l-83.4-37.4l-57.1-26.4l-219.8-112.3l-45.8-25.3l-66-34.5l-0.4-0.2l-0.4-0.1l-186.9-49l-158.9-40.9l-0.1,0l-0.1,0l-226.6-46
		l-0.5-0.1l-0.5,0L351.4,320h-0.1l-0.1,0l-208.6,13.3l-0.2,0l-0.2,0L0,354.1"/>
	<path class="st7" d="M0,375.7l142.4-22.3h0l210.4-14.1l101-3.7l230.7,47.2L847,424.3l181.3,47.5l61.3,34.9l55.6,30.2l217.7,110.5
		l46.4,24.8l91.1,38.9l297.1,125.6c1.1,0.5,27,11.6,51,16.2l0.1,0l0.1,0c21.1,3.5,51.2,4,51.4,4h0.1l19.9-0.1"/>
	<path class="st8" d="M463.4,320l-109,3.8l-213.4,14l-178.5,28.1v10.5l178.1-28.8l220-13.7l100.3-4.9L688,377.8l158.2,40.2
		l184.2,49.1l65.7,36.2l44.3,23.7L1368,643l44,22.2l90.8,40.7l281,119.3c43.3,19,62.7,25.5,107.3,26.2l60.3,0.7l-3-13.7l-50.7,0.5
		c-46.3-0.4-67.5-6.3-110.2-24.7l-279.9-119.7l-90-40.2l-43.9-20.7l-222.6-114.4L1102,492l-66.5-35.6l-185.8-49.1l-155.6-39.6
		L463.4,320L463.4,320z"/>
	<circle class="st9" cx="0" cy="0" r="10">
	
		<animateMotion  accumulate="none" additive="replace" calcMode="linear" dur="55s" fill="remove" id="a" path="M463.44,319.96l-109.048,3.792l-213.408,14.042   l-178.5,28.083v10.5l178.097-28.75l219.958-13.667l100.256-4.852l227.19,48.738l158.159,40.216l184.174,49.091l65.667,36.242   l44.333,23.732l227.667,115.833l44,22.167l90.833,40.667l281,119.333c43.333,19,62.667,25.5,107.333,26.158l60.333,0.675l-3-13.667   l-50.667,0.5c-46.333-0.383-67.5-6.333-110.167-24.667L1507.795,694.46l-89.978-40.167l-43.916-20.667l-222.584-114.375   l-49.333-27.292l-66.458-35.565l-185.758-49.113l-155.619-39.58L463.44,319.96L463.44,319.96z" repeatCount="indefinite" restart="always">
		</animateMotion>
	</circle>
	<circle class="st12" cx="0" cy="0" r="0">
	
		<animate  accumulate="none" additive="replace" attributeName="r" begin="0s" calcMode="linear" dur="1s" fill="remove" from="0.9" repeatCount="indefinite" restart="always" to="25">
		</animate>
	
		<animate  accumulate="none" additive="replace" attributeName="opacity" begin="0s" calcMode="linear" dur="1s" fill="remove" from="0.9" repeatCount="indefinite" restart="always" to="0">
		</animate>
	
		<animateMotion  accumulate="none" additive="replace" calcMode="linear" dur="40s" fill="remove" id="a" keyPoints="0;0.0;1" keyTimes="0;0.1;1" path="M463.44,319.96l-109.048,3.792l-213.408,14.042   l-178.5,28.083v10.5l178.097-28.75l219.958-13.667l100.256-4.852l227.19,48.738l158.159,40.216l184.174,49.091l65.667,36.242   l44.333,23.732l227.667,115.833l44,22.167l90.833,40.667l281,119.333c43.333,19,62.667,25.5,107.333,26.158l60.333,0.675l-3-13.667   l-50.667,0.5c-46.333-0.383-67.5-6.333-110.167-24.667L1507.795,694.46l-89.978-40.167l-43.916-20.667l-222.584-114.375   l-49.333-27.292l-66.458-35.565l-185.758-49.113l-155.619-39.58L463.44,319.96L463.44,319.96z" repeatCount="indefinite" restart="always">
		</animateMotion>
	</circle>
	<circle class="st9" cx="0" cy="0" r="10">
	
		<animateMotion  accumulate="none" additive="replace" calcMode="linear" dur="40s" fill="remove" id="a" keyPoints="0;0.0;1" keyTimes="0;0.1;1" path="M463.44,319.96l-109.048,3.792l-213.408,14.042   l-178.5,28.083v10.5l178.097-28.75l219.958-13.667l100.256-4.852l227.19,48.738l158.159,40.216l184.174,49.091l65.667,36.242   l44.333,23.732l227.667,115.833l44,22.167l90.833,40.667l281,119.333c43.333,19,62.667,25.5,107.333,26.158l60.333,0.675l-3-13.667   l-50.667,0.5c-46.333-0.383-67.5-6.333-110.167-24.667L1507.795,694.46l-89.978-40.167l-43.916-20.667l-222.584-114.375   l-49.333-27.292l-66.458-35.565l-185.758-49.113l-155.619-39.58L463.44,319.96L463.44,319.96z" repeatCount="indefinite" restart="always">
		</animateMotion>
	</circle>
	<circle class="st9" cx="0" cy="0" r="10">
	
		<animateMotion  accumulate="none" additive="replace" calcMode="linear" dur="40s" fill="remove" id="a" path="M463.44,319.96l-109.048,3.792l-213.408,14.042   l-178.5,28.083v10.5l178.097-28.75l219.958-13.667l100.256-4.852l227.19,48.738l158.159,40.216l184.174,49.091l65.667,36.242   l44.333,23.732l227.667,115.833l44,22.167l90.833,40.667l281,119.333c43.333,19,62.667,25.5,107.333,26.158l60.333,0.675l-3-13.667   l-50.667,0.5c-46.333-0.383-67.5-6.333-110.167-24.667L1507.795,694.46l-89.978-40.167l-43.916-20.667l-222.584-114.375   l-49.333-27.292l-66.458-35.565l-185.758-49.113l-155.619-39.58L463.44,319.96L463.44,319.96z" repeatCount="indefinite" restart="always">
		</animateMotion>
	</circle>
</g>
<g id="city">
	<polygon class="st1" points="881.7,872.4 827.1,829.4 750.9,882.8 825,950.4 883.8,902.9 865,886 	"/>
	<polyline class="st1" points="964.3,918 848.5,829 889.2,797.5 1001.7,875.9 964.3,918 	"/>
	<polygon class="st1" points="1259.7,905.5 1325.7,944.1 1339.6,921.9 1294,894.2 1355.4,808.6 1339.6,800.2 	"/>
	<polygon class="st1" points="1473.2,826.9 1482.8,795 1542.6,819.5 1525.8,847.5 	"/>
	<polygon class="st1" points="1468.3,729 1413,701 1343.9,794.7 1395.7,822.9 1452,735.4 1462.3,739.8 	"/>
	<polygon class="st1" points="1479,784.8 1492,788.8 1507,748.6 1494.3,744.5 	"/>
	<polygon class="st1" points="1534.5,760.8 1621,792.4 1625.2,779.1 1540.1,747.8 	"/>
	<polygon class="st1" points="1707.4,827 1798.4,861 1800.4,850.1 1710.3,815.8 	"/>
	<polygon class="st1" points="1225.8,816.2 1187.5,866.1 1146.9,845.9 1176.5,812.6 1185.3,817 1198.1,802.3 	"/>
	<polygon class="st1" points="1258.4,784 1210.2,761 1234.9,729.6 1269.6,719.7 1296.2,732 	"/>
	<polygon class="st1" points="1305.3,714.8 1342.5,659.9 1219.3,600.5 1179.1,643 1214.9,660.2 1208.9,666.9 	"/>
	<polygon class="st1" points="1126.4,819.6 1136.9,808.9 961.2,703 948.2,712.8 	"/>
	<polygon class="st1" points="1141.3,805.4 1234.8,696.5 1166.2,661.2 1069.9,762.9 	"/>
	<path class="st1" d="M1110,639.1c1,0.3,42.7,22.7,42.7,22.7l-66.2,70.5l-44-25.3L1110,639.1z"/>
	<polygon class="st1" points="998.5,657.2 1036.3,678.8 1090.9,624.4 1055,604.5 	"/>
	<polygon class="st1" points="1070.1,598.2 1120.2,550.4 1212.7,595.5 1162.6,646.4 	"/>
	<polygon class="st1" points="1700.1,741.2 1705.1,729.2 1815.4,769.5 1814,781.9 	"/>
	<polygon class="st1" points="1670.7,730.5 1571.3,693.9 1578.5,682.6 1675.4,719.2 	"/>
	<polygon class="st1" points="1515.3,657.9 1522.7,640.5 1568.3,659 1563.6,677.8 	"/>
	<polygon class="st1" points="1488.8,666.1 1458.1,651.6 1482.8,625.3 1510.7,638.4 	"/>
	<polygon class="st1" points="1447.4,636.6 1462.4,643.8 1501.2,602.3 1487.2,595.9 	"/>
	<polygon class="st1" points="1522,544.9 1533.6,550.6 1576,503.1 1617.3,526.7 1604.2,539.8 1617.3,547.6 1640.7,523.3 
		1575.2,485.2 	"/>
	<polygon class="st1" points="1573.2,624.7 1610,648.6 1622.5,638.5 1585.9,614.7 	"/>
	<polygon class="st1" points="1602.5,574.9 1615.2,583.9 1660.3,541.3 1748.3,600.1 1757.5,590.5 1658,524.8 	"/>
	<polygon class="st1" points="1678.1,517.7 1691,526 1707.7,509 1695.6,500.9 	"/>
	<polygon class="st1" points="1615.2,434.1 1628.5,442.5 1665.1,432.6 1660.1,425.5 1630.6,433.4 1617.9,426.1 	"/>
	<polygon class="st1" points="1679.7,421.1 1658.2,416.6 1661.4,410.5 1673.4,412.9 1675.9,410.4 1685.2,413 	"/>
	<polygon class="st1" points="1275.4,559.6 1288.2,548.9 1362.6,583.9 1409.2,541.7 1421.2,548 1365.9,601.9 	"/>
	<polygon class="st1" points="1254.9,541.9 1264,545.8 1316.8,475.5 1308.2,472 	"/>
	<polygon class="st1" points="1423.4,530.9 1434.7,537.1 1506.6,464.2 1497,459.1 	"/>
	<polygon class="st1" points="1514,455.2 1523.6,444 1500.6,435.1 1489.3,445.6 	"/>
	<polygon class="st1" points="1458.9,444.6 1434.7,433.5 1445.2,424.4 1468.5,434.7 	"/>
	<polygon class="st1" points="1583.9,382.9 1604.6,355.8 1547.8,333.9 1521.5,360 	"/>
	<polygon class="st1" points="1619,338.8 1630.5,317 1546.1,285.1 1533.2,302.9 	"/>
	<polygon class="st1" points="1525.5,300.2 1466,281.3 1520.4,201.2 1599.1,226.1 1589.1,243.7 1542.2,228.8 1513.1,272.5 
		1536.8,279.7 	"/>
	<polygon class="st1" points="1307.6,403.8 1307.3,391.2 1278.7,390.1 1267.5,378.7 1271.3,371.2 1288.1,378.7 1305.2,354.9 
		1278.7,344.6 1253,383.7 1271.9,402.6 	"/>
	<polygon class="st1" points="1285,338.4 1297.4,343 1322.2,313.9 1310.4,309.7 	"/>
	<polygon class="st1" points="1307.5,299.5 1322.8,305 1364.1,251.3 1339.3,242.1 	"/>
	<polygon class="st1" points="1338.7,234.8 1451.7,275.5 1473.3,247.5 1427,231.6 1420.1,240.9 1400.1,233.5 1406.8,223.8 
		1346.2,202.9 	"/>
	<polygon class="st1" points="1353.3,195.1 1477.9,237.8 1505.6,197.6 1413.7,172.3 1406,183.8 1365.9,170.8 	"/>
	<polygon class="st1" points="1377,155.7 1512,191 1554.7,126.4 1401.7,81.3 	"/>
	<polygon class="st1" points="1533.8,189.1 1551.6,194.9 1586,186.4 1601.2,161.8 1562,149.8 	"/>
	<polygon class="st1" points="1511.1,102.6 1547.9,113.4 1543.3,83.4 1530.9,77.7 	"/>
	<polygon class="st1" points="793.5,771.3 782.6,765.5 687,834.1 696.9,841.4 	"/>
	<polygon class="st1" points="694.6,843.3 682.7,851.6 644.7,824.8 705.5,738.5 760,767.2 748,775.3 712.5,754.3 666.9,823.4 	"/>
	<polygon class="st1" points="630.7,819.6 687.9,745.5 612.5,702.5 550.8,778.8 	"/>
	<polygon class="st1" points="384.7,726.6 423.8,721.8 428.9,678.5 414.5,680.1 411.4,694 388.7,697 	"/>
	<polygon class="st1" points="323.8,702.6 363.8,716.1 381.7,694 341.8,681.8 	"/>
	<polygon class="st1" points="258.2,719.9 283.4,740.9 308.4,714.7 292,705 303.7,693.6 319.7,702.2 338.8,682.1 310.1,669.1 	"/>
	<polygon class="st1" points="505.5,702.6 513.2,667.1 484.8,670.8 475.3,705.9 	"/>
	<polygon class="st1" points="483.5,639 475.3,671.6 380.5,681 386.6,660 441.2,653.6 444.6,642.5 	"/>
	<polygon class="st1" points="367.1,627.2 355.9,619 387.5,591.8 376.6,585 389.4,574.5 440.2,605 427.4,616.9 399.9,599.7 	"/>
	<polygon class="st1" points="301.6,611.4 365.3,556 328.9,533.7 288.6,567.4 273.7,555.8 252.1,576.2 	"/>
	<line class="st8" x1="747.7" y1="742.6" x2="758.9" y2="734.4"/>
	<path class="st1" d="M281.3,801.2c0,0,52.4-17.7,110-27.4c77-13.1,137.9,1.7,137.9,1.7l67-83.1L550,671.6l-40.8,49.3l-9.3-3.3
		l-12.7,13.7h-31.3l3.8-18.3l-16.5-0.1l-6.2,26.3c-12.1,0.7-23.1,1.7-34.6,3.2L317,714.6l-63.6,63L281.3,801.2z"/>
	<polygon class="st1" points="742.5,705.4 758.2,692.9 828.8,726 819.3,734.4 789,720.6 784.2,726 	"/>
	<polygon class="st1" points="776.6,676.5 852.4,713.1 927.8,637.2 829,589.9 	"/>
	<polygon class="st1" points="903,612.6 950.2,538.4 1018.7,519.3 1052.9,535.7 936.8,629 	"/>
	<polygon class="st1" points="1047.3,515.4 1054.3,509.9 1074.1,518.3 1067.7,524.6 	"/>
	<polygon class="st1" points="846.6,522.8 886.4,538.2 914.2,503.7 870.9,488.8 	"/>
	<polygon class="st1" points="933,491.3 943.8,482.2 984,500 974,509.2 	"/>
	<polygon class="st1" points="1016.7,507.6 1028.7,513.1 1042.9,497.7 906.1,444.5 898.2,451.8 1024.1,500.1 	"/>
	<polygon class="st1" points="919,484.6 903.9,478.5 899.1,484 821.7,456.4 814.7,464.4 908.2,497.1 	"/>
	<polygon class="st1" points="826.5,453.9 849.8,461.9 865.8,443.9 843.3,436.2 838.3,441.9 846.8,444.5 842.9,449.1 833.8,446.1 	
		"/>
	<polygon class="st1" points="756.1,564.3 816.7,584.8 707.5,723.5 678.6,709.7 	"/>
	<polygon class="st1" points="665.4,703.6 624,684 675.8,586.1 703.4,593.8 713.4,576.1 730.4,581.4 	"/>
	<polygon class="st1" points="682.2,582.4 692.4,585.1 715.4,540.5 705.9,538 	"/>
	<polygon class="st1" points="722.2,564.3 733.6,567.3 744.9,545.6 734.5,543.2 	"/>
	<polygon class="st1" points="535.5,642.3 603.9,674.3 700.1,510.2 670.5,499.3 	"/>
	<polygon class="st1" points="426.7,584.2 496.9,623.2 580.7,547.1 490,501.3 461.5,523.4 449.8,517.1 413.4,546.4 446.9,567.9 	"/>
	<polygon class="st1" points="404.4,521.6 420.8,532.8 435.2,521.4 419,510.9 	"/>
	<path class="st1" d="M424.9,502.5l18.6,11.4l9.8-8l12,6.2l20.6-15.7c0,0-40.3-19.9-40.2-19.8S424.9,502.5,424.9,502.5z"/>
	<polygon class="st1" points="450.9,466.8 591,539 634.6,499.3 464.8,446.1 	"/>
	<polygon class="st1" points="640.8,494.3 679.1,460 615.4,438.6 576.6,474 	"/>
	<polygon class="st1" points="625.3,429.1 690,450.3 706,435.3 667.7,423.8 678.7,413.8 651.6,406.3 	"/>
	<polygon class="st1" points="565.9,469.6 616.3,424.6 590.5,416.6 579.9,425.3 567.1,421.4 544.6,441.3 559.8,446 542.2,461.8 	"/>
	<polygon class="st1" points="444.4,463.4 402.2,444.6 417.8,429 457.4,444.5 	"/>
	<polygon class="st1" points="463.4,435.8 469.2,437.4 489.8,415.8 469.1,408.4 	"/>
	<polygon class="st1" points="559.9,412.6 581.7,393.2 599.5,397.9 609,392 643.5,401.8 623.7,418.2 584.8,407.1 573.7,416.4 	"/>
	<polygon class="st1" points="661,404.1 729.7,421.2 745.3,405.8 676.5,389.6 	"/>
	<polygon class="st1" points="512.6,451.5 568.3,400.5 535.4,391.8 525.9,400 518.3,397.6 473.7,439.3 	"/>
	<polygon class="st1" points="483.7,409.6 493.5,413.1 513.2,395 503.7,391.4 	"/>
	<polygon class="st1" points="650.6,398.7 664.1,385.8 553.1,363 532,381.8 557.8,388.8 565.5,381 	"/>
	<polygon class="st1" points="512.1,387.7 541.3,362.2 481.5,348.9 469.6,359.4 477.7,361.7 483.6,356.7 522.6,365.7 501,384.2 	"/>
	<polygon class="st1" points="490.4,381.5 496,376.5 427.2,357.7 421.9,362.3 	"/>
	<polygon class="st1" points="759.4,545.5 820.6,574.4 829,565 807.4,484.4 785,481.3 	"/>
	<polygon class="st1" points="791.8,496.8 798.9,497.9 813.3,555.4 776.1,537.9 	"/>
	<polygon class="st1" points="752.2,536.2 710.5,520.7 767,427 785.3,429.9 790.9,441 	"/>
	<polygon class="st13" points="776.3,671.1 851.8,706.6 928,631 829.1,583.7 	"/>
	<polygon class="st2" points="825,950.4 824.3,922.8 748,855.4 750.9,882.8 	"/>
	<polygon class="st2" points="964.3,918 964.9,899.5 846.3,812 848.5,829 	"/>
	<polygon class="st2" points="1339.6,899.7 1268.2,858.6 1259.7,905.5 1325.7,944.1 	"/>
	<polygon class="st2" points="1453.1,729 1452,735.4 1462.3,739.8 1463.7,734.2 	"/>
	<polyline class="st2" points="1396.5,816.1 1345,788.1 1343.9,794.7 1395.7,822.9 1396.5,816.1 	"/>
	<polygon class="st2" points="1535.5,756.3 1534.5,760.8 1621,792.4 1622.6,788 	"/>
	<polygon class="st2" points="1473.2,821 1473.2,826.9 1525.8,847.5 1526.6,841.7 	"/>
	<polygon class="st2" points="1800.7,858.2 1709.1,823.2 1707.4,827 1798.4,861 	"/>
	<polygon class="st2" points="1492,788.8 1479,784.8 1479.6,779.2 1492.8,783.6 	"/>
	<polygon class="st2" points="1200.2,764.3 1187.5,866.1 1146.9,845.9 1153.2,744 	"/>
	<line class="st8" x1="1127.6" y1="760.3" x2="945.4" y2="654.5"/>
	<polyline class="st2" points="1127.6,760.3 1126.4,819.6 948.2,712.8 945.4,654.5 	"/>
	<line class="st8" x1="1268.2" y1="730.1" x2="1217.3" y2="708.7"/>
	<polygon class="st2" points="1185.3,709.3 1176.5,812.6 1185.3,817 1195.3,714 	"/>
	<polygon class="st2" points="1244.4,708.7 1211.1,695.4 1198.1,802.3 1225.8,816.2 	"/>
	<polyline class="st2" points="1217.3,708.7 1210.2,761 1258.4,784 1268.2,730.1 	"/>
	<polygon class="st2" points="998.5,651.5 998.5,657.2 1036.3,678.8 1036.3,672.6 	"/>
	<polygon class="st2" points="1070.1,598.2 1162.6,646.4 1162.6,640.9 1070.1,592.7 	"/>
	<polygon class="st2" points="1042.5,693.4 1086.5,718.7 1086.5,718.7 1086.5,732.3 1086.5,732.3 1042.5,707 	"/>
	<polygon class="st2" points="1316.8,661.8 1209.6,611.3 1208.9,666.9 1305.3,714.8 	"/>
	<polygon class="st2" points="1069.9,763.3 1069.9,708.7 1143.8,749.5 1141.3,805.4 	"/>
	<polygon class="st2" points="1214.9,660.2 1215.2,606 1179.1,589.3 1179.1,643 	"/>
	<polygon class="st2" points="1488.8,666.1 1458.1,651.6 1475.6,596.1 1507,609 	"/>
	<polygon class="st2" points="1533.4,605.9 1515.3,657.9 1563.6,677.8 1587.4,626.6 	"/>
	<polygon class="st2" points="1671.9,726.1 1571.3,689.1 1571.3,693.9 1670.7,730.5 	"/>
	<polygon class="st2" points="1816.7,778.8 1701,736.1 1700.1,741.2 1814,781.9 	"/>
	<polygon class="st2" points="1618.7,542 1605.2,534.6 1604.2,539.8 1617.3,547.6 	"/>
	<polygon class="st2" points="1618.8,521.2 1577.2,497.6 1576,503.1 1617.3,526.7 	"/>
	<polygon class="st2" points="1497.6,533.3 1462.4,643.8 1447.4,636.6 1480,525.3 	"/>
	<polygon class="st2" points="1535,544.4 1533.6,550.6 1522,544.9 1523.6,539.2 	"/>
	<polygon class="st2" points="1573.2,624.7 1595.7,571.8 1631.7,597.3 1610,648.6 	"/>
	<polygon class="st2" points="1660.3,541.3 1662,536.5 1749.9,595.3 1748.3,600.1 	"/>
	<polygon class="st2" points="1691.9,519.1 1691,526 1678.1,517.7 1679.2,510.8 	"/>
	<polygon class="st2" points="1639.9,410.6 1628.5,442.5 1615.2,434.1 1625.3,404.6 	"/>
	<polygon class="st2" points="1658.2,416.6 1668.6,385 1690,390.2 1679.7,421.1 	"/>
	<polygon class="st2" points="1602.5,574.9 1604.7,569.5 1617.8,578.4 1615.2,583.9 	"/>
	<polygon class="st2" points="1379.3,540.6 1365.9,601.9 1275.4,559.6 1284.7,500.6 	"/>
	<polygon class="st2" points="1275.3,484.9 1264,545.8 1254.9,541.9 1265.3,479.6 	"/>
	<polygon class="st2" points="1440.7,467.5 1423.4,530.9 1434.7,537.1 1452.8,472.9 	"/>
	<polygon class="st2" points="1493.5,327 1458.9,444.6 1434.7,433.5 1466.2,315.6 	"/>
	<polygon class="st2" points="1489.3,445.6 1527.6,327.6 1554.8,338.9 1514,455.2 	"/>
	<polygon class="st2" points="1271.9,402.6 1273.8,375.3 1254.9,353.5 1253,383.7 	"/>
	<polygon class="st2" points="1297.4,343 1300,315.5 1287.1,310.4 1285,338.4 	"/>
	<polygon class="st2" points="1307.5,299.5 1309.5,274.7 1325,278.6 1322.8,305 	"/>
	<polygon class="st2" points="1338.7,234.8 1340.4,205.5 1457.4,246.4 1451.7,275.5 	"/>
	<polygon class="st2" points="1533.8,272.5 1525.5,300.2 1466,281.3 1472.4,253.2 	"/>
	<polygon class="st2" points="1619,338.8 1628.8,310.1 1541.3,276.6 1533.2,302.9 	"/>
	<polygon class="st2" points="1271.3,371.2 1272.8,343.9 1289.8,351.7 1288.1,378.7 	"/>
	<polygon class="st2" points="1521.5,360 1531.8,328.7 1595.2,352.8 1583.9,382.9 	"/>
	<polygon class="st2" points="1271.9,402.6 1273.8,375.3 1310.8,374.5 1307.6,403.8 	"/>
	<polygon class="st2" points="1353.3,172.8 1353.3,194.9 1477.9,237.5 1481.9,214.7 	"/>
	<polyline class="st2" points="1542.2,228.8 1549.1,204.2 1594.8,219 1589.1,243.7 1542.2,228.8 	"/>
	<polygon class="st2" points="1551.6,194.9 1553,189.8 1535.2,184 1533.8,189.1 	"/>
	<polygon class="st2" points="1420.1,240.6 1423.5,209.2 1401.8,203.3 1400.1,233.3 	"/>
	<polygon class="st2" points="1377,150.6 1377,155.7 1512,191 1512.8,186.6 	"/>
	<polygon class="st2" points="1511.1,102.6 1511.7,97.3 1548.8,108.2 1547.9,113.4 	"/>
	<polygon class="st2" points="1551.6,194.9 1553,189.8 1587.4,181.3 1586,186.4 	"/>
	<polygon class="st2" points="283.4,740.9 273.5,718.4 241.5,692.4 258.2,719.9 	"/>
	<polygon class="st2" points="303.7,693.6 295,669.1 308.4,675.1 319.7,702.2 	"/>
	<polygon class="st2" points="323.8,702.6 313.2,675.9 352.7,689.4 363.8,716.1 	"/>
	<polygon class="st2" points="384.7,726.6 370.2,694 408.2,688.1 423.8,721.8 	"/>
	<polygon class="st2" points="475.3,705.9 463.4,678.5 495.5,673.5 505.5,702.6 	"/>
	<polygon class="st2" points="682.7,851.6 644.7,824.8 633,783.4 674.1,810.6 	"/>
	<polygon class="st2" points="712.5,754.3 706.5,714.8 742.5,736.5 748,775.3 	"/>
	<polygon class="st2" points="475.3,671.6 464.9,639 367.9,648.2 380.5,681 	"/>
	<polygon class="st2" points="367.1,627.2 354.1,592 342.5,584.1 355.9,619 	"/>
	<polygon class="st2" points="427.4,616.9 416.2,582.3 386.9,564.3 399.9,599.7 	"/>
	<polygon class="st2" points="551.1,779 548.2,770.5 628.2,811.3 630.7,819.6 	"/>
	<polygon class="st2" points="281.3,801.2 253.4,777.7 225.5,733 253.4,760.4 	"/>
	<path class="st2" d="M281.3,801.2c0,0,52.4-17.7,110-27.4c77-13.1,137.9,1.7,137.9,1.7l-14.1-35.1c0,0-18.6-3.4-59.9-1.9
		c-33.6,1.2-58.5,4.9-58.5,4.9l-12.2-21.5c0,0-40.3,6-84.3,20.4c-24.3,7.9-46.7,18.2-46.7,18.2L281.3,801.2z"/>
	<polygon class="st2" points="301.6,611.4 287.4,576.4 239.6,540.9 252.1,576.2 	"/>
	<polygon class="st2" points="376.6,585 364.9,549.6 375.5,557.2 387.5,591.8 	"/>
	<polygon class="st2" points="413.4,546.4 411.7,538.6 445.3,560.1 446.9,567.9 	"/>
	<polygon class="st2" points="420.8,532.8 420.5,526.4 403.9,515.5 404.2,521.6 	"/>
	<polygon class="st2" points="397.2,422.7 440.4,439.3 444.4,463.4 402.2,444.6 	"/>
	<polygon class="st2" points="493.5,413.1 489.6,388.2 480,385.4 483.7,409.6 	"/>
	<polygon class="st2" points="581.8,381.6 584.9,407.2 623.7,418.2 619.4,373.4 565.3,362.1 567,377.4 	"/>
	<polygon class="st2" points="576.6,474 577,468 640.9,488.1 640.8,494.3 	"/>
	<polygon class="st2" points="496.9,623.2 495.3,615.4 424.3,576.5 426.7,584.2 	"/>
	<polygon class="st2" points="424.9,502.5 424.5,497.2 443.1,508.6 443.5,513.9 	"/>
	<polygon class="st2" points="453.3,505.9 452.9,500.6 464.9,506.8 465.3,512.1 	"/>
	<polygon class="st2" points="450.9,466.8 450.5,461.2 591.2,532.6 591,539 	"/>
	<polygon class="st2" points="559.2,446 559.7,439.5 544.4,435 544.9,441.4 	"/>
	<polygon class="st2" points="542.5,462 542.1,455.4 566.4,463.1 565.9,469.6 	"/>
	<polygon class="st2" points="474,439 472.8,432.8 511.8,445 512.6,451.5 	"/>
	<polygon class="st2" points="463.4,435.8 461.9,430.8 467.6,432.3 469.2,437.4 	"/>
	<polygon class="st2" points="532,381.8 528.4,353.5 555.2,358.7 557.8,388.8 	"/>
	<polygon class="st2" points="501,384.2 497.2,353 508.8,355.6 512.1,387.7 	"/>
	<polygon class="st2" points="421.9,362.3 415.3,322.6 484.9,343 490.4,381.5 	"/>
	<polygon class="st2" points="559.9,412.6 573.7,416.4 571.1,388.8 557.1,385.2 	"/>
	<polygon class="st2" points="696.9,841.4 686.2,797.8 675.7,791.8 687,834.1 	"/>
	<polygon class="st2" points="799.2,671.9 781.3,663.8 789,720.6 819.3,734.4 811.7,652.6 796,645.8 	"/>
	<polygon class="st2" points="784.2,726 775.9,668.4 734.2,648.9 742.5,705.4 	"/>
	<polygon class="st2" points="776.8,676.6 776.3,671.1 851.8,706.6 852.4,713.1 	"/>
	<polygon class="st2" points="817.4,541.2 820.6,574.4 759.4,545.5 756.1,512 	"/>
	<polygon class="st2" points="535.5,642.3 533.8,636.6 602.3,668.9 603.9,674.3 	"/>
	<polygon class="st2" points="855.1,685.9 837.3,676.5 828.3,579.5 847,588.5 	"/>
	<polygon class="st2" points="886.4,538.2 886.4,533 846.6,517.5 846.6,522.8 	"/>
	<polygon class="st2" points="1067.7,524.6 1067.7,491 1047.4,482.2 1047.3,515.4 	"/>
	<polyline class="st2" points="908.2,497.1 814.7,464.4 813.9,448.7 873.8,468.7 873.8,456.4 907.5,468.7 908.2,497.1 	"/>
	<polygon class="st2" points="933,491.3 933,476.1 974,494.2 974,509.2 	"/>
	<polygon class="st2" points="898.2,451.8 898.2,434.2 1023.4,483.1 1024.1,500.1 	"/>
	<polygon class="st2" points="849.8,461.9 849.8,436 826,428.5 826.5,453.9 	"/>
	<polygon class="st2" points="846.6,444.7 846.8,418.2 838.3,415.8 838.3,441.9 	"/>
	<polygon class="st2" points="1028.7,513.1 1028.2,494.2 1016,489.4 1016.7,507.6 	"/>
	<polygon class="st2" points="936.8,629 936.5,621.6 902.5,605.1 903,612.6 	"/>
	<polygon class="st2" points="678.6,709.7 677.4,702.3 706.3,716.1 707.5,723.5 	"/>
	<polygon class="st2" points="624,684 623.3,676.5 664.7,696.2 665.4,703.6 	"/>
	<polygon class="st2" points="752.2,536.2 748.8,502.5 707.1,487.1 710.5,520.7 	"/>
	<polygon class="st2" points="483.7,356.8 479.5,325.3 519.1,334.9 522.6,365.7 	"/>
	<polygon class="st2" points="469.6,359.4 464.8,328.3 473.3,330.3 477.7,361.7 	"/>
	<polygon class="st2" points="729.7,421.2 726.8,377.8 658.6,363.6 661,404.1 	"/>
	<polygon class="st2" points="625.3,429.1 625,421.9 689.8,443.1 690,450.3 	"/>
	<polygon class="st2" points="565.5,381 562.8,350.9 648.2,367.7 650.1,399.1 	"/>
	<polygon class="st2" points="692.4,585.1 692.1,579.5 681.9,576.7 682.2,582.4 	"/>
	<polygon class="st2" points="733.6,567.3 733.3,563 721.9,560 722.2,564.3 	"/>
	<polygon class="st2" points="798.9,497.9 795.6,464.7 788.5,463.6 791.8,496.8 	"/>
	<polygon class="st1" points="825,950.4 883.8,902.9 884.6,874.8 824.3,922.8 	"/>
	<polygon class="st1" points="964.3,918 964.9,899.5 1001.7,859 1001.7,875.9 	"/>
	<polygon class="st1" points="865,858.8 881.7,846.3 881.7,872.4 865,886 	"/>
	<polygon class="st1" points="1356.2,877.3 1339.6,899.7 1325.7,944.1 1339.6,921.9 	"/>
	<polygon class="st1" points="1355.4,808.6 1367.5,764 1305.9,847.3 1294,894.2 	"/>
	<polygon class="st1" points="1453.1,729 1396.5,816.1 1395.7,822.9 1452,735.4 	"/>
	<polygon class="st1" points="1462.3,739.8 1468.3,729 1470.5,722 1463.7,734.2 	"/>
	<polygon class="st1" points="1507,748.6 1492,788.8 1492.8,783.6 1508.2,743 	"/>
	<line class="st8" x1="1543.2" y1="814.6" x2="1526.6" y2="841.7"/>
	<line class="st8" x1="1525.8" y1="847.5" x2="1526.6" y2="841.7"/>
	<polyline class="st1" points="1543.2,814.6 1542.6,819.5 1525.8,847.5 	"/>
	<polygon class="st1" points="1187.5,866.1 1225.8,816.2 1244.4,708.7 1200.2,764.3 	"/>
	<polygon class="st1" points="1268.2,730.1 1258.4,784 1296.2,732 1307.4,677.8 	"/>
	<polygon class="st1" points="1090.9,618.1 1036.3,672.6 1036.3,678.8 1090.9,623.8 	"/>
	<polygon class="st1" points="1354.9,609.4 1316.8,661.8 1305.3,714.8 1342.5,659.9 	"/>
	<polygon class="st1" points="1152.4,648.3 1086.5,718.7 1086.5,718.7 1086.5,732.3 1152.4,661.8 	"/>
	<polygon class="st1" points="1212.7,590 1162.6,640.9 1162.6,645.9 1212.7,595.5 	"/>
	<polygon class="st1" points="1140.2,744.6 1127.6,760.3 1126.4,819.6 1136.9,808.9 	"/>
	<polygon class="st1" points="1239.8,641.9 1234.8,696.5 1141.3,805.4 1143.8,749.5 	"/>
	<polygon class="st1" points="1526.8,585.9 1510.7,638.4 1488.8,666.1 1507,609 	"/>
	<polygon class="st1" points="1501.2,602.3 1537.4,492 1497.6,533.3 1462.4,643.8 	"/>
	<polygon class="st1" points="1643,589.7 1622.5,638.5 1610,648.6 1631.7,597.3 	"/>
	<polygon class="st1" points="1533.6,550.6 1535,544.4 1577.2,497.6 1576,503.1 	"/>
	<polygon class="st1" points="1642.4,517.5 1640.7,523.3 1617.3,547.6 1618.7,542 	"/>
	<polygon class="st1" points="1748.3,600.1 1757.5,590.5 1759.2,585.5 1749.9,595.3 	"/>
	<polygon class="st1" points="1708.7,502.4 1707.7,509 1691,526 1691.9,519.1 	"/>
	<polygon class="st1" points="1563.6,677.8 1587.4,626.6 1592.8,607.1 1568.3,659 	"/>
	<path class="st1" d="M1615.2,583.9l2.6-5.4c0.9-1.6,44.2-42,44.2-42l-1.7,4.8L1615.2,583.9z"/>
	<polygon class="st1" points="1675.6,403 1665.1,432.6 1628.5,442.5 1639.9,410.6 	"/>
	<polygon class="st1" points="1695.5,381.8 1685.2,413 1679.7,421.1 1690,390.2 	"/>
	<polygon class="st1" points="1365.9,601.9 1379.3,540.6 1439.8,484.9 1421.2,548 	"/>
	<polygon class="st1" points="1264,545.8 1275.3,484.9 1328.4,414.7 1316.8,475.5 	"/>
	<polygon class="st1" points="1434.7,537.1 1452.8,472.9 1528.5,400 1506.6,464.2 	"/>
	<polygon class="st1" points="1468.5,434.7 1502.3,318.1 1493.5,327 1458.9,444.6 	"/>
	<polygon class="st1" points="1523.6,444 1563.2,329.7 1554.8,338.9 1514,455.2 	"/>
	<polygon class="st1" points="1307.3,391.2 1310.8,363.9 1310.8,374.5 1307.6,403.8 	"/>
	<polygon class="st1" points="1297.4,343 1300,315.5 1325,286.5 1322.2,313.9 	"/>
	<polygon class="st1" points="1322.8,305 1325,278.6 1367.8,222.4 1364.1,251.3 	"/>
	<polygon class="st1" points="1473.3,247.5 1478.8,218.6 1457.4,246.4 1451.7,275.5 	"/>
	<polygon class="st1" points="1477.9,237.8 1481.9,214.7 1508.4,174.6 1505.6,197.6 	"/>
	<polygon class="st1" points="1525.5,300.2 1533.8,272.5 1544,256.8 1536.8,279.7 	"/>
	<polygon class="st1" points="1614.6,327 1604.6,355.8 1583.9,382.9 1595.2,352.8 	"/>
	<polygon class="st1" points="1639.3,291 1630.5,317 1619,338.8 1628.8,310.1 	"/>
	<polygon class="st1" points="1589.1,243.7 1594.8,219 1604.4,201.2 1599.1,226.1 	"/>
	<polygon class="st1" points="1289.8,351.7 1288.1,378.7 1305.2,355 1307.3,331.7 	"/>
	<polygon class="st1" points="1513.1,272.5 1520,249.4 1549.1,204.2 1542.2,228.8 	"/>
	<polygon class="st1" points="1551.6,194.9 1553,189.8 1587.4,181.3 1586,186.4 	"/>
	<polygon class="st1" points="1586,186.4 1587.4,181.3 1602.6,156.7 1601,162.1 	"/>
	<polygon class="st1" points="1420.1,240.6 1423.5,209.2 1429.7,202.9 1427,231.6 	"/>
	<polygon class="st1" points="1400.1,233.3 1401.8,203.3 1408,195.1 1406.8,223.8 	"/>
	<polygon class="st1" points="1406,183.8 1406.8,161 1413.7,149.6 1413.7,172.3 	"/>
	<polygon class="st1" points="1512,191 1512.8,186.6 1555.4,122 1554.7,126.4 	"/>
	<polygon class="st1" points="1543.3,83.4 1544.3,79.5 1548.8,108.2 1547.9,113.4 	"/>
	<polygon class="st1" points="1268.9,349.1 1267.5,378.7 1271.3,371.2 1272.8,343.9 	"/>
	<polygon class="st1" points="787.4,722.4 793.5,771.3 696.9,841.4 686.2,797.8 	"/>
	<polygon class="st1" points="684.6,802.3 694.6,843.3 682.7,851.6 674.1,810.6 	"/>
	<polygon class="st1" points="819.3,734.4 811.7,652.6 820.6,642.6 828.8,726 	"/>
	<polygon class="st1" points="784.2,726 775.9,668.4 781.3,663.8 789,720.6 	"/>
	<polygon class="st1" points="820.6,574.4 817.4,541.2 825.7,531.8 829,565 	"/>
	<polygon class="st1" points="914.2,503.7 914.5,498.1 886.4,533 886.4,538.2 	"/>
	<polygon class="st1" points="908.2,497.1 907.5,468.7 919,455.1 919,484.6 	"/>
	<polygon class="st1" points="974,509.2 974,494.2 984,484.9 984,500 	"/>
	<polygon class="st1" points="849.8,461.9 849.8,436 865.2,416.3 865.8,443.9 	"/>
	<polygon class="st1" points="666.9,823.4 654.3,783 706.5,714.8 712.5,754.3 	"/>
	<polygon class="st1" points="748,775.3 742.5,736.5 753.7,728.3 760,767.2 	"/>
	<polygon class="st1" points="630.7,819.6 628.2,811.3 685.4,737.5 687.9,745.5 	"/>
	<polygon class="st1" points="707.5,723.5 706.3,716.1 815.4,577.4 816.7,584.8 	"/>
	<polygon class="st1" points="776.5,538 772.9,504.7 788.5,463.6 791.8,496.8 	"/>
	<polygon class="st1" points="752.2,536.2 748.8,502.5 787.6,407.3 790.9,441 	"/>
	<polygon class="st1" points="319.7,702.2 308.4,675.1 328.7,655.2 338.8,682.1 	"/>
	<polygon class="st1" points="363.8,716.1 352.7,689.4 372.5,667.1 382.4,694 	"/>
	<polygon class="st1" points="423.8,721.8 408.2,688.1 419.2,646.9 428.9,678.5 	"/>
	<polygon class="st1" points="367.1,627.2 354.1,592 386.9,564.3 399.9,599.7 	"/>
	<polygon class="st1" points="427.4,616.9 416.2,582.3 430,570 440.2,605 	"/>
	<polygon class="st1" points="301.6,611.4 287.4,576.4 354.4,522.5 365.3,556 	"/>
	<polygon class="st1" points="581.8,381.6 584.9,407.2 573.7,416.4 571.1,388.8 	"/>
	<polygon class="st1" points="640.8,494.3 640.9,488.1 679.5,454.1 679.1,460 	"/>
	<polygon class="st1" points="643.5,401.8 639.4,356.4 619.4,373.4 623.7,418.2 	"/>
	<polygon class="st1" points="741.7,362.3 745.2,406.1 729.7,421.2 726.8,377.8 	"/>
	<polygon class="st1" points="1052.9,535.7 1053.7,528.9 936.5,621.6 936.8,629 	"/>
	<polygon class="st1" points="1067.7,524.6 1067.7,491 1074.9,483.6 1074.1,518.3 	"/>
	<polygon class="st1" points="1028.7,513.1 1028.2,494.2 1042.9,480.2 1042.9,497.7 	"/>
	<g id="XMLID_2_" class="st14">
		<g>
			<polygon class="st15" points="909.8,529.4 913.5,627.4 855.1,685.9 847,588.5 			"/>
		</g>
	</g>
	<polygon class="st1" points="455.8,731.3 447,713.2 448.5,689.3 459.6,713 	"/>
	<polygon class="st1" points="308.4,714.7 299.7,691.5 273.5,718.4 283.4,740.9 	"/>
	<polygon class="st1" points="852.4,713.1 851.8,706.6 928,631 927.8,637.2 	"/>
	<polygon class="st1" points="496.9,623.2 495.3,615.4 580.2,538.3 580.7,547.1 	"/>
	<polygon class="st1" points="591,539 591.2,532.6 634.3,493.9 634.6,499.3 	"/>
	<polygon class="st1" points="690,450.3 689.8,443.1 706.2,428.1 706,435.3 	"/>
	<polygon class="st1" points="667.7,423.8 667.5,416.6 678.8,407.2 678.7,413.8 	"/>
	<polygon class="st1" points="616,424.9 615.5,418.1 566.4,463.1 565.9,469.6 	"/>
	<polygon class="st1" points="650.1,399.1 648.2,367.7 661.4,355.7 663.6,385.7 	"/>
	<polygon class="st1" points="790.9,441 787.6,407.3 781.9,396.3 785.3,429.9 	"/>
	<polygon class="st1" points="475.3,671.6 464.9,639 473.3,614 483.5,639 	"/>
	<polygon class="st1" points="440.4,439.3 452.6,420.7 457.4,444.5 444.4,463.4 	"/>
	<polygon class="st1" points="499.1,408.3 495.9,382.2 489.6,388.2 493.5,413.1 	"/>
	<line class="st8" x1="513.2" y1="395" x2="513.2" y2="387.6"/>
	<polygon class="st1" points="603.9,674.3 602.3,668.9 699.8,506.5 700.2,511.6 	"/>
	<polygon class="st1" points="505.5,702.6 495.5,673.5 502.6,633.5 513.2,667.1 	"/>
	<polyline class="st1" points="523.2,730.9 515.1,740.3 529.1,775.4 596.2,692.3 588.9,670.6 529.1,743.6 523.2,730.9 	"/>
	<polygon class="st1" points="730.4,581.4 729.7,574 664.7,696.2 665.4,703.6 	"/>
	<polygon class="st1" points="692.4,585.1 692.1,579.5 715.1,534.8 715.4,540.5 	"/>
	<polygon class="st1" points="733.6,567.3 733.3,563 744.9,540.7 744.9,545.6 	"/>
	<polygon class="st1" points="420.8,532.8 420.5,526.4 434.8,515 435.2,521.4 	"/>
	<polygon class="st1" points="443.5,513.9 443.1,508.6 452.9,500.6 453.3,505.9 	"/>
	<polygon class="st1" points="465.3,512.1 464.9,506.8 486.3,490.6 486.4,496.5 	"/>
	<polygon class="st1" points="568.3,400.5 567.4,394 511.8,445 512.6,451.5 	"/>
	<polygon class="st1" points="489.7,416 489,410.7 467.6,432.3 469.2,437.4 	"/>
	<polygon class="st1" points="557.8,388.8 555.2,358.7 562.8,350.9 565.5,381 	"/>
	<polygon class="st1" points="512.1,387.7 508.8,355.6 538.3,331 541.3,362.2 	"/>
	<polygon class="st1" points="491.2,337.6 496,376.5 490.4,381.5 484.9,343 	"/>
	<polygon class="st1" points="292,705 282.4,681.2 295,669.1 303.7,693.6 	"/>
	<polygon class="st1" points="477.7,361.7 473.3,330.3 479.5,325.3 483.6,356.7 	"/>
	<polygon class="st3" points="1001.7,859 887.5,780.7 846.3,812 964.9,899.5 	"/>
	<polygon class="st3" points="881.7,846.3 865,858.8 884.6,874.8 824.3,922.8 748,855.4 823.9,802.2 	"/>
	<polygon class="st3" points="1339.6,899.7 1268.2,858.6 1353.7,756.5 1367.5,764 1305.9,847.3 1356.2,877.3 	"/>
	<polygon class="st3" points="1343.9,787.6 1413.6,693.4 1470.5,722 1463.7,734.2 1453.1,729 1396.5,816.1 	"/>
	<polygon class="st3" points="1535.5,756.3 1541.2,743.1 1626.5,774.9 1622.6,788 	"/>
	<polygon class="st3" points="1482,788.8 1543.2,814.6 1526.6,841.7 1473.2,821 	"/>
	<polygon class="st3" points="1479.6,779.2 1492.8,783.6 1508.2,743 1493.9,738.4 	"/>
	<polygon class="st3" points="1709.1,823.2 1711.9,812.5 1802.5,847.8 1800.7,858.2 	"/>
	<polygon class="st3" points="1153.2,744 1200.2,764.3 1244.4,708.7 1211.1,695.4 1195.3,714 1185.3,709.3 	"/>
	<polygon class="st3" points="1127.6,760.3 945.4,654.5 958.9,641.9 1140.2,744.6 	"/>
	<polygon class="st3" points="998.5,651.5 1055.4,599.1 1090.9,618.1 1036.3,672.6 	"/>
	<polygon class="st3" points="1143.8,749.5 1239.8,641.9 1165.7,608.3 1069.9,708.7 	"/>
	<polyline class="st3" points="1217.3,708.7 1242.3,674.2 1276.6,663.8 1307.4,677.8 1268.2,730.1 1217.3,708.7 	"/>
	<path class="st3" d="M1316.8,661.8c-1.2-0.4-107.2-50.6-107.2-50.6l5.5-5.2l-36.1-16.8l41.3-42.8l134.5,62.9L1316.8,661.8z"/>
	<path class="st3" d="M1109.7,625.6c1,0.3,42.7,22.7,42.7,22.7l-65.9,70.4l-44-25.3L1109.7,625.6z"/>
	<polygon class="st3" points="1070.1,592.7 1119.7,545.4 1212.7,590 1162.6,640.9 	"/>
	<polygon class="st3" points="1475.6,596.1 1507,609 1526.8,585.9 1497.1,573.9 	"/>
	<polygon class="st3" points="1480,525.3 1497.6,533.3 1537.4,492 1522.3,485.1 	"/>
	<path class="st3" d="M1533.4,605.9c0,0.8,54,20.7,54,20.7l5.4-19.4l-51-19.4L1533.4,605.9z"/>
	<polygon class="st3" points="1631.7,597.3 1595.7,571.8 1607,563.5 1643,589.7 	"/>
	<polygon class="st3" points="1571.3,689.1 1577.8,677.8 1677.2,715.4 1671.9,726.1 	"/>
	<polygon class="st3" points="1701,736.1 1705.5,725.3 1818.1,766.2 1816.7,778.8 	"/>
	<polygon class="st3" points="1523.6,539.2 1535,544.4 1577.2,497.6 1618.8,521.2 1605.2,534.6 1618.7,542 1642.4,517.5 
		1575.6,479.7 	"/>
	<polygon class="st3" points="1679.2,510.8 1691.9,519.1 1708.7,502.4 1696.5,494.3 	"/>
	<polygon class="st3" points="1625.3,404.6 1628.1,398.2 1640.9,403.5 1670.7,396.6 1675.6,403 1639.9,410.6 	"/>
	<polygon class="st3" points="1668.7,384.6 1690,390.2 1695.5,381.8 1685.6,379.4 1682.8,383 1670.4,380 	"/>
	<polygon class="st3" points="1284.7,500.6 1379.3,540.6 1439.8,484.9 1426.2,478 1376,524 1295.8,490.3 	"/>
	<polygon class="st3" points="1265.3,479.6 1275.3,484.9 1328.4,414.7 1318.7,411.1 	"/>
	<polygon class="st3" points="1440.7,467.3 1452.8,472.9 1528.5,400 1518.2,395 	"/>
	<polygon class="st3" points="1466.2,315.6 1493.5,327 1502.3,318.1 1476.3,307.2 	"/>
	<polygon class="st3" points="1527.6,327.6 1554.8,338.9 1563.2,329.7 1537.2,319 	"/>
	<polygon class="st3" points="1254.9,353.5 1273.8,375.3 1310.8,374.5 1310.8,363.9 1280.7,363.9 1268.9,349.1 1272.8,343.9 
		1289.8,351.7 1307.3,331.7 1279.4,320.9 	"/>
	<polygon class="st3" points="1287.1,310.4 1300,315.5 1325,286.5 1312.5,282.7 	"/>
	<polygon class="st3" points="1309.5,274.7 1325,278.6 1367.8,222.4 1342.2,214.2 	"/>
	<polygon class="st3" points="1340.4,205.5 1457.4,246.4 1478.8,218.6 1429.7,202.9 1423.5,209.5 1401.8,203.6 1408,195.1 
		1349.4,176.1 	"/>
	<polygon class="st3" points="1353.3,173 1481.9,215 1508.4,174.6 1413.7,149.6 1406.8,161 1366,150.1 	"/>
	<polygon class="st3" points="1533.8,272.5 1472.4,253.2 1524.4,177.3 1604.4,201.2 1594.8,219 1549.1,204.2 1520,249.4 1544,256.8 
			"/>
	<polygon class="st3" points="1628.8,310.1 1541.3,276.6 1552.5,260.9 1639.3,291 	"/>
	<polygon class="st3" points="1595.2,352.8 1614.6,327 1554.1,303.6 1531.8,328.7 	"/>
	<polygon class="st3" points="1535.2,184 1553,189.8 1587.4,181.3 1602.6,156.7 1563.4,144.6 	"/>
	<polygon class="st3" points="1377,150.6 1512.8,186.6 1555.4,122 1401.4,76.1 	"/>
	<polygon class="st3" points="1511.7,97.3 1548.8,108.2 1544.3,79.5 1531.5,72.8 	"/>
	<polygon class="st3" points="241.5,692.4 293.6,642.3 328.7,655.2 308.4,675.1 295,669.1 282.4,681.2 299.7,691.5 273.5,718.4 	"/>
	<polygon class="st3" points="313.2,675.9 332.9,655.9 371.8,667.1 352.7,689.4 	"/>
	<polygon class="st3" points="378.7,665.7 398.2,663.1 403.1,648.8 419.2,646.9 408.2,688.1 370.2,694 	"/>
	<polygon class="st3" points="473.3,637.5 502.6,633.5 495.5,673.5 463.4,678.5 	"/>
	<polygon class="st3" points="753.7,728.3 698.2,695 633,783.4 674.1,810.6 684.6,802.3 654.3,783 706.5,714.8 742.5,736.5 	"/>
	<polygon class="st3" points="686.2,797.8 675.7,791.8 776.6,717.4 787.4,722.4 	"/>
	<polygon class="st3" points="734.2,648.9 750.4,636.3 809.1,661.4 799.2,671.9 781.3,663.8 775.9,668.4 	"/>
	<polygon class="st3" points="811.7,652.6 820.6,642.6 805.2,636.5 796,645.8 	"/>
	<polygon class="st3" points="533.8,636.6 602.3,668.9 699.8,506.5 670.2,495.7 	"/>
	<polygon class="st3" points="367.9,648.2 464.9,639 473.3,614 434.8,617.3 431.1,626.5 374.6,632.8 	"/>
	<polygon class="st3" points="342.5,584.1 354.1,592 386.9,564.3 416.2,582.3 430,570 377.9,538.3 364.9,549.6 375.5,557.2 	"/>
	<polygon class="st3" points="287.4,576.4 354.4,522.5 318.5,502.5 280.8,533.7 263.7,521.7 239.6,540.9 	"/>
	<polygon class="st3" points="397.2,422.7 412.8,406 452.6,420.7 440.4,439.3 	"/>
	<polygon class="st3" points="489.6,388.2 495.9,382.2 486.7,379.4 480,385.4 	"/>
	<polygon class="st3" points="498.2,401 513.2,387.6 503.6,384.2 488.5,397.4 	"/>
	<polygon class="st3" points="581.8,386.6 567,382.4 557.1,390.2 571.1,393.8 	"/>
	<polygon class="st3" points="673.9,349.5 741.7,362.3 726.8,377.8 658.6,363.6 	"/>
	<polygon class="st3" points="565.3,362.1 619.4,373.4 639.4,356.4 603.1,348.1 596.5,353.3 577.2,349.4 	"/>
	<polygon class="st3" points="936.5,621.6 1053.7,528.9 1017.8,512 949.1,531.9 902.5,605.1 	"/>
	<polygon class="st3" points="1047.4,482.2 1067.7,491 1074.9,483.6 1055.1,475.5 	"/>
	<polygon class="st3" points="1016,489.4 1028.2,494.2 1042.9,480.2 905.8,428.2 898.2,434.2 1023.4,483.1 	"/>
	<polygon class="st3" points="826,428.5 849.8,436 865.2,416.3 843.7,410.7 838.3,415.8 846.8,418.2 842.2,423 833.8,420.5 	"/>
	<polygon class="st3" points="873.8,460.5 820.2,442.5 813.9,448.7 873.8,468.7 	"/>
	<polygon class="st3" points="873.8,456.4 907.5,468.7 919,455.1 904.3,449.2 897.2,456.4 879.5,450.1 	"/>
	<polygon class="st3" points="933,476.1 943.5,468 984,484.9 974,494.2 	"/>
	<polygon class="st3" points="628.2,811.3 685.4,737.2 610.1,695 548.2,770.5 	"/>
	<polyline class="st3" points="588.9,670.6 542.9,650.3 501.8,700.1 493,697.9 480.5,713 447,713.2 448.5,689.3 430.2,690.5 
		424,741.8 	"/>
	<path class="st3" d="M253.4,760.4c0,0,22.4-10.3,46.7-18.2c44-14.3,84.3-20.4,84.3-20.4l-0.7-12.9c0,0-36.4,5.3-66.9,14.4
		c-29.7,8.8-51.6,17-51.6,17l-22.6-19.1L225.5,733L253.4,760.4z"/>
	<path class="st3" d="M396.6,743.2c0,0,24.9-3.7,58.5-4.9c41.3-1.4,59.9,1.9,59.9,1.9l8.2-9.4c0,0-24.9-5.5-67.5-4
		c-32.8,1.1-58.9,4.8-58.9,4.8L396.6,743.2z"/>
	<polygon class="st3" points="828.3,579.5 847,588.5 909.8,529.4 890.7,520.6 	"/>
	<polygon class="st3" points="754.8,556.9 815.4,577.4 706.3,716.1 677.4,702.3 	"/>
	<polygon class="st3" points="664.7,696.2 623.3,676.5 675.1,578.7 702.7,586.4 712.7,568.7 729.7,574 	"/>
	<polygon class="st3" points="681.9,576.7 692.1,579.5 715.1,534.8 705.6,532.3 	"/>
	<polygon class="st3" points="721.9,560 733.3,563 744.9,540.7 734.4,538.5 	"/>
	<polygon class="st3" points="424.3,576.5 495.3,615.4 580.2,538.3 488.4,493.5 459.9,515.6 448.2,509.3 411.7,538.6 445.3,560.1 	
		"/>
	<polygon class="st3" points="404.1,515.2 420.5,526.4 434.8,515 418.6,504.4 	"/>
	<polygon class="st3" points="424.5,497.2 443.1,508.6 452.9,500.6 464.9,506.8 486.3,490.6 446,470.2 	"/>
	<polygon class="st3" points="450.5,461.2 591.2,532.6 634.3,493.9 464.2,440.8 	"/>
	<polygon class="st3" points="640.9,488.1 679.5,454 615.4,433 577,468 	"/>
	<polygon class="st3" points="625,421.9 689.8,443.1 706.2,428.1 667.5,416.6 678.8,407.2 651.4,399.7 	"/>
	<polygon class="st3" points="566.4,463.1 615.5,418.1 590.4,411 579.8,420.6 566.4,416.6 544.4,435 559.7,439.5 542.1,455.4 	"/>
	<polygon class="st3" points="511.7,445 567.4,394 534.5,385.3 525,393.5 517.6,391 472.8,432.8 	"/>
	<polygon class="st3" points="461.9,430.8 467.6,432.3 489,410.7 467.8,402.6 	"/>
	<polygon class="st3" points="648.2,367.7 661.4,355.7 551,332.4 528.4,353.5 555.2,358.7 562.8,350.7 	"/>
	<polygon class="st3" points="508.8,355.6 538.3,331 478.5,317.7 464.8,328.3 473.3,330.3 479.5,325.3 519.1,334.9 497.2,352.8 	"/>
	<polygon class="st3" points="484.9,343 491.2,337.6 420.6,318 415.3,322.6 	"/>
	<polygon class="st3" points="756.2,512.2 817.4,541.2 825.7,531.8 804.2,451.2 781.7,448.1 	"/>
	<polygon class="st3" points="788.5,463.6 795.6,464.7 810,522.1 772.9,504.7 	"/>
	<polygon class="st3" points="748.8,502.5 707.1,487.1 763.7,393.3 781.9,396.3 787.6,407.3 	"/>
	<circle class="st16" cx="0" cy="0" r="0">
	
		<animate  accumulate="none" additive="replace" attributeName="r" begin="0s" calcMode="linear" dur="1s" fill="remove" from="1" repeatCount="indefinite" restart="always" to="30">
		</animate>
	
		<animate  accumulate="none" additive="replace" attributeName="opacity" begin="0s" calcMode="linear" dur="1s" fill="remove" from="2" repeatCount="indefinite" restart="always" to="0">
		</animate>
        
        
        
        
        
        
        
        
        
        
	
		<animateMotion  accumulate="none" additive="replace" calcMode="linear" dur="0s" fill="remove" id="a" path="M1062.400,209.248c0.415,0,0.831,0.013,1.249,0.039c9.546,0.587,17.309,8.218,18.056,17.749v0     c0.353,4.501-0.867,8.994-3.436,12.65c-3.517,5.34-9.396,10.459-13.702,13.806c-0.629,0.489-1.384,0.734-2.138,0.734     c0,0-0.001,0-0.001,0c-0.754,0-1.508-0.245-2.137-0.733c-4.307-3.343-10.186-8.46-13.736-13.847     c-2.26-3.216-3.47-7.052-3.47-11.052c0-5.315,2.221-10.453,6.095-14.095C1053.537,196.097,1058.192,194.254,1063.135,194.254" repeatCount="indefinite" restart="always">
		</animateMotion>
        
        
        
        
      
      
      
      
        
        
        
        
	</circle>
	<path class="st3" d="M424,741.8c10.2-1,23.3-1.9,37.7-2.4c42.5-1.5,67.5,4,67.5,4l0,0l59.8-72.8"/>
	<polygon class="st2" points="924.8,838.7 904.7,603.8 861.3,579.4 882,808.4 	"/>
	<polygon class="st1" points="904.7,603.8 924.8,586.6 941.3,825.1 924.8,838.7 	"/>
	<polygon class="st3" points="861.3,579.4 904.7,603.8 924.8,586.6 879.8,563.5 	"/>
	<polygon class="st3" points="1604.7,569.5 1659,519.8 1759.2,585.5 1749.9,595.3 1662,536.5 1617.8,578.4 	"/>
	<path class="st8" d="M891.5,501.3c0,0-4.4-4.7-9.9-1.6c-7.6,4.2-20.6,12.4-20.6,12.4s-8.9,7.6,2.8,8.5c5.1,0.4,25.1-0.1,26.4-7.5
		C890.5,511.5,891.5,501.3,891.5,501.3z"/>
</g>
<circle class="st12" cx="0" cy="0" r="0">
<animate  accumulate="none" additive="replace" attributeName="r" begin="0s" calcMode="linear" dur="1s" fill="remove" from="0.9" repeatCount="indefinite" restart="always" to="25">
	</animate>
<animate  accumulate="none" additive="replace" attributeName="opacity" begin="0s" calcMode="linear" dur="1s" fill="remove" from="0.9" repeatCount="indefinite" restart="always" to="0">
	</animate>
<animateMotion  accumulate="none" additive="replace" calcMode="linear" dur="30s" fill="remove" id="a" path="M891.523,501.293c0,0-4.376-4.663-9.872-1.644   c-7.606,4.178-20.598,12.39-20.598,12.39s-8.921,7.591,2.848,8.539c5.109,0.411,25.117-0.091,26.355-7.47   C890.528,511.485,891.523,501.293,891.523,501.293z" repeatCount="indefinite" restart="always">
	</animateMotion>
</circle>
<circle class="st17" cx="0" cy="0" r="10">
<animateMotion  accumulate="none" additive="replace" calcMode="linear" dur="30s" fill="remove" id="a" path="M891.523,501.293c0,0-4.376-4.663-9.872-1.644   c-7.606,4.178-20.598,12.39-20.598,12.39s-8.921,7.591,2.848,8.539c5.109,0.411,25.117-0.091,26.355-7.47   C890.528,511.485,891.523,501.293,891.523,501.293z" repeatCount="indefinite" restart="always">
	</animateMotion>
</circle>
<g>
	<path class="st18" d="M1012.8,202.6c0.9,14.6-9.2,26.9-22.8,29.6c-0.5,0.1-1,0.4-1.4,0.8l-3.2,3.8c-0.5,0.5-1.3,0.5-1.7,0l-3.2-3.8
		c-0.3-0.4-0.8-0.7-1.4-0.8c-13-2.5-22.9-14-22.9-27.8c0-16.2,13.7-29.3,30.1-28.2C1000.5,177,1011.9,188.5,1012.8,202.6z"/>
	<g>
		<g id="path1148_4_">
			<path class="st0" d="M984.5,197.4c1.1,0,1.9,0.9,1.9,1.9v9.4l0,0c0,1.1-0.9,1.9-1.9,1.9l0,0c-1.1,0-1.9-0.9-1.9-1.9v-9.4l0,0
				C982.6,198.3,983.4,197.4,984.5,197.4L984.5,197.4"/>
		</g>
		<g id="path1144_4_">
			<path class="st0" d="M975.9,201.7c1.1,0,1.9,0.9,1.9,1.9v5.4l0,0c0,1.1-0.9,1.9-1.9,1.9l0,0c-1.1,0-1.9-0.9-1.9-1.9v-5.4l0,0
				C974,202.5,974.9,201.7,975.9,201.7L975.9,201.7"/>
		</g>
		<g id="path1152_4_">
			<path class="st0" d="M993.1,194c1.1,0,1.9,0.9,1.9,1.9v13.1l0,0c0,1.1-0.9,1.9-1.9,1.9l0,0c-1.1,0-1.9-0.9-1.9-1.9V196l0,0
				C991.2,194.9,992.1,194,993.1,194L993.1,194"/>
		</g>
	</g>
</g>
<g>
	<path class="st18" d="M919.5,467.7c0.9,14.6-9.2,26.9-22.8,29.6c-0.5,0.1-1,0.4-1.4,0.8l-3.2,3.8c-0.5,0.5-1.3,0.5-1.7,0l-3.2-3.8
		c-0.3-0.4-0.8-0.7-1.4-0.8c-13-2.5-22.9-14-22.9-27.8c0-16.2,13.7-29.3,30.1-28.2C907.2,442.2,918.6,453.6,919.5,467.7z"/>
	<g>
		<g id="path1148_3_">
			<path class="st0" d="M891.2,462.6c1.1,0,1.9,0.9,1.9,1.9v9.4l0,0c0,1.1-0.9,1.9-1.9,1.9l0,0c-1.1,0-1.9-0.9-1.9-1.9v-9.4l0,0
				C889.3,463.4,890.1,462.6,891.2,462.6L891.2,462.6"/>
		</g>
		<g id="path1144_3_">
			<path class="st0" d="M882.6,466.8c1.1,0,1.9,0.9,1.9,1.9v5.4l0,0c0,1.1-0.9,1.9-1.9,1.9l0,0c-1.1,0-1.9-0.9-1.9-1.9v-5.4l0,0
				C880.7,467.7,881.6,466.8,882.6,466.8L882.6,466.8"/>
		</g>
		<g id="path1152_3_">
			<path class="st0" d="M899.8,459.2c1.1,0,1.9,0.9,1.9,1.9v13.1l0,0c0,1.1-0.9,1.9-1.9,1.9l0,0c-1.1,0-1.9-0.9-1.9-1.9v-13.1l0,0
				C897.9,460.1,898.8,459.2,899.8,459.2L899.8,459.2"/>
		</g>
	</g>
</g>
<g>
	<g>
		<path class="st19" d="M1091.4,206.3c0.9,14.6-9.2,26.9-22.8,29.6c-0.5,0.1-1,0.4-1.4,0.8l-3.2,3.8c-0.5,0.5-1.3,0.5-1.7,0
			l-3.2-3.8c-0.3-0.4-0.8-0.7-1.4-0.8c-13-2.5-22.9-14-22.9-27.8c0-16.2,13.7-29.3,30.1-28.2
			C1079.1,180.8,1090.5,192.2,1091.4,206.3z"/>
	</g>
	<g>
		<path class="st0" d="M1075.3,196.7v0.8c0,0.3-0.3,0.6-0.6,0.6h-2.1v3.3h1.7c0.3,0,0.6,0.3,0.6,0.6v3.4c0,0.3-0.3,0.6-0.6,0.6h-4.4
			c-0.4,0-0.6-0.3-0.6-0.6V202c0-0.3,0.3-0.6,0.6-0.6h1.7v-3.3h-10.5v19.5h3.6c0.3,0,0.6,0.3,0.6,0.6v2.6c0,0.3-0.3,0.6-0.6,0.6
			h-10.2c-0.3,0-0.6-0.3-0.6-0.6v-2.6c0-0.3,0.3-0.6,0.6-0.6h3.5v-19.5h-6.3c-0.3,0-0.6-0.3-0.6-0.6v-1c0-0.3,0.2-0.5,0.4-0.6
			l6.5-2.5v-0.9c0-0.3,0.3-0.6,0.6-0.6h1.8c0.3,0,0.6,0.3,0.6,0.6v0.9l13.7,2.6C1075.1,196.1,1075.3,196.4,1075.3,196.7z"/>
		<path class="st0" d="M1053.6,201.3h-1.9c-0.3,0-0.6-0.3-0.6-0.6v-1.4c0-0.3,0.3-0.6,0.6-0.6h1.9c0.3,0,0.6,0.3,0.6,0.6v1.4
			C1054.2,201.1,1053.9,201.3,1053.6,201.3z"/>
	</g>
</g>
</svg>
